/* XPM */
/* From the Gnome icon theme. */
const char* edit_xpm[] = {
"16 16 102 2",
"  	c None",
". 	c #AAADA6",
"+ 	c #A9ABA5",
"@ 	c #A8ABA5",
"# 	c #A8AAA4",
"$ 	c #A7AAA4",
"% 	c #A7A9A3",
"& 	c #EEEFED",
"* 	c #FFFFFF",
"= 	c #F9FAF9",
"- 	c #E9E9E8",
"; 	c #AFB2AC",
"> 	c #A5A7A1",
", 	c #FEFEFE",
"' 	c #EBECE9",
") 	c #E7E9E5",
"! 	c #E5E8E3",
"~ 	c #E3E6E1",
"{ 	c #E1E4DE",
"] 	c #E2E5DF",
"^ 	c #D9DAD8",
"/ 	c #FDFDFD",
"( 	c #BDBEBA",
"_ 	c #A3A6A0",
": 	c #FDFEFD",
"< 	c #E4E7E2",
"[ 	c #E3E5E0",
"} 	c #DFE2DC",
"| 	c #DDE0DA",
"1 	c #C4C6C1",
"2 	c #FCFDFC",
"3 	c #AAACA8",
"4 	c #A2A49E",
"5 	c #E4E6E1",
"6 	c #888A85",
"7 	c #DBDED7",
"8 	c #BFC1BB",
"9 	c #ACB0AA",
"0 	c #B2B3B1",
"a 	c #D9DBD8",
"b 	c #A1A49D",
"c 	c #A0A29C",
"d 	c #E0E3DC",
"e 	c #DCDFD8",
"f 	c #D9DCD6",
"g 	c #D8DBD4",
"h 	c #D5D9D1",
"i 	c #CED2CB",
"j 	c #C9CDC6",
"k 	c #CE5C00",
"l 	c #9EA19B",
"m 	c #DCE0DA",
"n 	c #F5D400",
"o 	c #FCAF3E",
"p 	c #9D9F99",
"q 	c #DCDFD9",
"r 	c #DADCD6",
"s 	c #D9DDD6",
"t 	c #D9DCD5",
"u 	c #F57900",
"v 	c #9B9D97",
"w 	c #CC5D04",
"x 	c #999B96",
"y 	c #E0E3DD",
"z 	c #DFE1DC",
"A 	c #E0E2DD",
"B 	c #B17A4A",
"C 	c #979A94",
"D 	c #ECC3A2",
"E 	c #949691",
"F 	c #969892",
"G 	c #E7E8E4",
"H 	c #E5E7E3",
"I 	c #E6E8E3",
"J 	c #E6E8E4",
"K 	c #000000",
"L 	c #6B5736",
"M 	c #E2CDB8",
"N 	c #93958F",
"O 	c #FEFEFD",
"P 	c #E9EAE7",
"Q 	c #E5CFBA",
"R 	c #ECEDEA",
"S 	c #90928D",
"T 	c #92958F",
"U 	c #EDEEEB",
"V 	c #EEEFEC",
"W 	c #EFF0ED",
"X 	c #EFF0EE",
"Y 	c #FFFFFE",
"Z 	c #8F918C",
"` 	c #969893",
" .	c #ECEDEB",
"..	c #FEFFFE",
"+.	c #EFEFEE",
"@.	c #91938D",
"#.	c #8E908B",
"$.	c #8D8F8A",
"%.	c #8D8F89",
"&.	c #8C8E89",
"*.	c #8C8E88",
"=.	c #90928E",
"      . + @ # $ $ % @           ",
"    + & * * * * * = - ;         ",
"    > , ' ) ! ~ { ] ^ / (       ",
"    _ : ) < [ { } | 1 * 2 3     ",
"    4 / 5 6 6 6 6 7 8 9 0 a b   ",
"    c / d | e 7 f g h i j k k   ",
"    l / m 6 6 6 6 6 6 6 k n o k ",
"    p / q r s t t t f k n o u k ",
"    v / | 6 6 6 6 6 k n o u k w ",
"    x / y z } A A k n o u k B   ",
"    C / ~ 6 6 6 6 k o u k D E   ",
"    F : G H I J k K L k M , N   ",
"    E O P 6 6 6 K k Q ' R , S   ",
"    T , R R U V & W X X X Y Z   ",
"    `  ...Y Y * * * * * * +.@.  ",
"      E #.#.#.$.$.%.&.&.*.=.    "};
