/* XPM */
const char* graphism_xpm[] = {
"16 16 5 1",
" 	c None",
".	c #737013",
"+	c #9CB51E",
"@	c #808080",
"#	c #1F98FF",
" ......+++++....",
"@......+++++....",
"@......+++++....",
"@......+++++....",
"@......+++++....",
"@......+++++....",
"@......+++++....",
"@......+++++....",
"@......+++++....",
"@......+++++....",
"@......+++++....",
"@......+++++....",
"@......+++++....",
"@###############",
"@###############",
"@@@@@@@@@@@@@@@ "};
