/* XPM */
const char * item_class_xpm[] = {
"16 16 39 1",
" 	c None",
".	c #FFFFFF",
"+	c #0E6091",
"@	c #2199FF",
"#	c #299DFF",
"$	c #2B9EFF",
"%	c #31A0FF",
"&	c #37A3FF",
"*	c #3BA5FF",
"=	c #41A8FF",
"-	c #47ABFF",
";	c #1795FF",
">	c #1D97FF",
",	c #239AFF",
"'	c #279CFF",
")	c #FFFF00",
"!	c #0A4568",
"~	c #1192FF",
"{	c #2FA0FF",
"]	c #0B8FFF",
"^	c #45AAFF",
"/	c #058CFF",
"(	c #0D90FF",
"_	c #1594FF",
":	c #1B96FF",
"<	c #35A2FF",
"[	c #3FA7FF",
"}	c #038BFF",
"|	c #078DFF",
"1	c #0088FC",
"2	c #0085F6",
"3	c #0089FE",
"4	c #0083F2",
"5	c #018AFF",
"6	c #0F91FF",
"7	c #007FEA",
"8	c #0082F0",
"9	c #259BFF",
"0	c #007CE6",
"            .   ",
"   +++++++.+. . ",
"  +@#$%&*=-...  ",
" +;>,'$%&...)...",
"!+~;>,'${&*...+ ",
"!+]~;>@'$%.*.^. ",
"!+/(~_:,'${<.[+ ",
"!+}|(~_:@'${<*+ ",
"!+1}/]~;:,'${<+ ",
"!+23}/]~;:@'${+ ",
"!+4215/]6;:@'#+ ",
"!+78215/]~_:@9+ ",
"!+074215/]~_:@+ ",
"!!+078215/]~_+  ",
" !!++++++++++   ",
"  !!!!!!!!!!    "};
