/* XPM */
static const char* wireframe_xpm[] = {
"16 16 20 1",
" 	c None",
".	c #E6FF9D",
"+	c #808080",
"@	c #0B4457",
"#	c #13464D",
"$	c #244A3A",
"%	c #2D4C30",
"&	c #214948",
"*	c #294B3F",
"=	c #1D4857",
"-	c #004082",
";	c #3FBF00",
">	c #573900",
",	c #4D390A",
"'	c #303827",
")	c #133744",
"!	c #003657",
"~	c #3A381D",
"{	c #1D373A",
"]	c #0A364D",
" ...........    ",
"+.@@######@.    ",
"+.$$%%%%%%$.    ",
"+.&&******&.    ",
"+.=========.    ",
"+.---------.    ",
"+...........    ",
"++++++;;;;;;;;;;",
"     +;>>>>,')!;",
"     +;>>>,~{]!;",
"     +;>>,~{]!!;",
"     +;>,~{]!!!;",
"     +;~'{]!!!!;",
"     +;{)]!!!!!;",
"     +;;;;;;;;;;",
"     ++++++++++ "};
