/* XPM */
static const char* adjust_vertically_xpm[] = {
"16 16 76 1",
" 	c None",
".	c #BF0000",
"+	c #400000",
"@	c #E6E6E6",
"#	c #B0C9CC",
"$	c #B3CCCE",
"%	c #B6CED0",
"&	c #B8D0D2",
"*	c #BAD2D5",
"=	c #BDD4D7",
"-	c #BFD7D9",
";	c #C2D9DB",
">	c #C4DCDD",
",	c #C7DEE0",
"'	c #CAE0E2",
")	c #CCE2E5",
"!	c #CFE5E6",
"~	c #808080",
"{	c #ADC7C9",
"]	c #B0CACC",
"^	c #B3CBCD",
"/	c #B5CED0",
"(	c #BAD3D5",
"_	c #C0D7D9",
":	c #C2DADB",
"<	c #C4DBDE",
"[	c #C8DDDF",
"}	c #CCE2E4",
"|	c #AAC5C7",
"1	c #B2CCCD",
"2	c #C5DCDE",
"3	c #C7DDDF",
"4	c #A8C3C5",
"5	c #ABC5C7",
"6	c #C0D7D8",
"7	c #C5DBDD",
"8	c #C8DEDF",
"9	c #A5C0C2",
"0	c #A8C3C4",
"a	c #BDD4D6",
"b	c #A2BEC0",
"c	c #A6C0C2",
"d	c #ABC5C6",
"e	c #B5CDD0",
"f	c #B7D0D2",
"g	c #BAD2D4",
"h	c #BCD5D7",
"i	c #BFD7D8",
"j	c #A0BBBD",
"k	c #A3BEC0",
"l	c #A8C2C4",
"m	c #BDD5D6",
"n	c #9DBABC",
"o	c #A0BBBE",
"p	c #B0C9CB",
"q	c #B2CBCE",
"r	c #BAD3D4",
"s	c #9BB7B9",
"t	c #9EBABB",
"u	c #AFC9CB",
"v	c #B2CBCD",
"w	c #98B5B7",
"x	c #9DB9BB",
"y	c #AFCACB",
"z	c #96B3B5",
"A	c #9BB8B9",
"B	c #AAC5C6",
"C	c #93B1B3",
"D	c #95B2B5",
"E	c #90AEB0",
"F	c #93B0B2",
"G	c #96B3B4",
"H	c #98B4B7",
"I	c #9FBCBE",
"J	c #AAC4C7",
"K	c #ADC7C8",
" ...............",
"+@#$%&*=-;>,')!@",
"~@{]^/&(._:<['}@",
"~@|{#1%...-:23'@",
"~@45{].....6;78@",
"~@905+++.+*a_;7@",
"~@bc0d{+.efghi;@",
"~@jk9ld+.1efgmi@",
"~@nok94+.pqe&ra@",
"~@stokc+.{uv/f*@",
"~@wsxj.....y1/f@",
"~@zwA++...B{#ve@",
"~@CDws++.94|{u1@",
"~@EFGHs+Ik9lJKp@",
"~...............",
"+++++++++++++++ "};
