/* XPM */
const char* align_horizontal_middle_xpm[] = {
"16 16 29 1",
" 	c None",
".	c #BF0000",
"+	c #94B1B3",
"@	c #9AB6B8",
"#	c #9EBABB",
"$	c #A3BEC0",
"%	c #A8C3C5",
"&	c #AEC8C9",
"*	c #B3CCCD",
"=	c #B8D0D2",
"-	c #BDD4D6",
";	c #C2D9DB",
">	c #C7DEDF",
",	c #CCE2E3",
"'	c #D1E6E8",
")	c #400000",
"!	c #8EACAE",
"~	c #93B0B2",
"{	c #98B5B6",
"]	c #9DB9BA",
"^	c #A3BEBF",
"/	c #A7C2C3",
"(	c #ADC6C8",
"_	c #B2CBCD",
":	c #B7CFD1",
"<	c #BCD4D5",
"[	c #C1D8DA",
"}	c #C6DCDE",
"|	c #CBE1E2",
"                ",
"  . . . . . . . ",
" .+@#$%&*=-;>,'.",
") !~{]^/(_:<[}| ",
" . . . . . . . .",
") ) ) ) ) ) ) ) ",
"   ...........  ",
"  ).%&*=-;>,'.  ",
"  ).^/(_:<[}|.  ",
"  )...........  ",
"  ))))))))))    ",
"      . . .     ",
"     .-;>,'.    ",
"    ) :<[}|     ",
"     . . . .    ",
"    ) ) ) )     "};
