/* XPM */
const char* delete_filter_everywhere_xpm[] = {
"16 16 91 1",
" 	c None",
".	c #009D00",
"+	c #005800",
"@	c #65C899",
"#	c #65CB9B",
"$	c #63CE9D",
"%	c #62D09F",
"&	c #62D4A1",
"*	c #61D7A3",
"=	c #60DAA5",
"-	c #60DEA6",
";	c #60D9A5",
">	c #62D6A2",
",	c #AC9F00",
"'	c #62D3A0",
")	c #B3A700",
"!	c #E85000",
"~	c #63CF9E",
"{	c #E44200",
"]	c #E84F00",
"^	c #64CC9C",
"/	c #908000",
"(	c #8D7D00",
"_	c #64CA9A",
":	c #E64900",
"<	c #E54200",
"[	c #E13700",
"}	c #65C99A",
"|	c #E64300",
"1	c #E23C00",
"2	c #DF3000",
"3	c #65C799",
"4	c #65CA9B",
"5	c #DE2C00",
"6	c #DA2200",
"7	c #65C698",
"8	c #E54400",
"9	c #DF3100",
"0	c #DA2A00",
"a	c #DD2E00",
"b	c #DE3000",
"c	c #66C396",
"d	c #65C99B",
"e	c #D41800",
"f	c #CA0E00",
"g	c #E13600",
"h	c #D92400",
"i	c #69B78E",
"j	c #D92200",
"k	c #DE2900",
"l	c #DB2400",
"m	c #65C397",
"n	c #BF0700",
"o	c #DC2900",
"p	c #D61D00",
"q	c #8F6F00",
"r	c #8F6E00",
"s	c #D71F00",
"t	c #D71D00",
"u	c #826000",
"v	c #C10800",
"w	c #BD0600",
"x	c #9B7C00",
"y	c #D71B00",
"z	c #D41900",
"A	c #8C6B00",
"B	c #D11400",
"C	c #CE1300",
"D	c #CE1100",
"E	c #CF1300",
"F	c #CF1200",
"G	c #CE1200",
"H	c #D8A900",
"I	c #E4BD00",
"J	c #DDB500",
"K	c #C80E00",
"L	c #B90500",
"M	c #B80400",
"N	c #E3C200",
"O	c #C80C00",
"P	c #C60A00",
"Q	c #BA0500",
"R	c #B70500",
"S	c #B50400",
"T	c #E4C700",
"U	c #D09400",
"V	c #E7C900",
"W	c #AA0100",
"X	c #AB0100",
"Y	c #AC0200",
"Z	c #E7CA00",
"      ..........",
"     +.@#$%&*=-.",
"    ..........;.",
"   +.@#$%&*=-.>.",
"  ..,.......;.'.",
" +.)!!!&*=-.>.~.",
" +!!{{{!]>;.'.^.",
" !!{/(_:<[>.~.}.",
" |1[2(3456'.^.7.",
"89.0abc3def.}...",
"gh.ijklm7fn.7.+ ",
"opqrrsteuvw...  ",
"xyzrrABCDw7.+   ",
" EFGHIJKLM..    ",
" NOOPQnRS++     ",
"TUVUWXYUZ       "};
