/* XPM */
static const char* delete_filter_xpm[] = {
"16 16 113 2",
"  	c None",
". 	c #009D00",
"+ 	c #005800",
"@ 	c #65C899",
"# 	c #65CB9B",
"$ 	c #63CE9D",
"% 	c #62D09F",
"& 	c #62D4A1",
"* 	c #61D7A3",
"= 	c #60DAA5",
"- 	c #60DEA6",
"; 	c #66C597",
"> 	c #65C799",
", 	c #64CB9B",
"' 	c #63CD9D",
") 	c #63D09F",
"! 	c #62D6A2",
"~ 	c #60D9A5",
"{ 	c #66C195",
"] 	c #66C497",
"^ 	c #64CA9A",
"/ 	c #62D09E",
"( 	c #62D3A1",
"_ 	c #AC9F00",
": 	c #67BE93",
"< 	c #67C095",
"[ 	c #66C397",
"} 	c #65CA9B",
"| 	c #63CD9C",
"1 	c #62D3A0",
"2 	c #B3A700",
"3 	c #E85000",
"4 	c #68BA90",
"5 	c #67BD92",
"6 	c #67C094",
"7 	c #66C396",
"8 	c #65C99B",
"9 	c #64CD9C",
"0 	c #63CF9E",
"a 	c #E44200",
"b 	c #E84F00",
"c 	c #68BD93",
"d 	c #65C397",
"e 	c #65C698",
"f 	c #64C99A",
"g 	c #64CC9C",
"h 	c #908000",
"i 	c #8D7D00",
"j 	c #E64900",
"k 	c #E54200",
"l 	c #E13700",
"m 	c #67BC92",
"n 	c #65C598",
"o 	c #65C99A",
"p 	c #E64300",
"q 	c #E23C00",
"r 	c #DF3000",
"s 	c #6BB08A",
"t 	c #DE2C00",
"u 	c #DA2200",
"v 	c #68B990",
"w 	c #67BF94",
"x 	c #E54400",
"y 	c #DF3100",
"z 	c #DA2A00",
"A 	c #DD2E00",
"B 	c #DE3000",
"C 	c #D41800",
"D 	c #CA0E00",
"E 	c #E13600",
"F 	c #D92400",
"G 	c #D92200",
"H 	c #DE2900",
"I 	c #DB2400",
"J 	c #BF0700",
"K 	c #DC2900",
"L 	c #D61D00",
"M 	c #8F6F00",
"N 	c #8F6E00",
"O 	c #D71F00",
"P 	c #D71D00",
"Q 	c #826000",
"R 	c #C10800",
"S 	c #BD0600",
"T 	c #9B7C00",
"U 	c #D71B00",
"V 	c #D41900",
"W 	c #8C6B00",
"X 	c #D11400",
"Y 	c #CE1300",
"Z 	c #CE1100",
"` 	c #CF1300",
" .	c #CF1200",
"..	c #CE1200",
"+.	c #D8A900",
"@.	c #E4BD00",
"#.	c #DDB500",
"$.	c #C80E00",
"%.	c #B90500",
"&.	c #B80400",
"*.	c #E3C200",
"=.	c #C80C00",
"-.	c #C60A00",
";.	c #BA0500",
">.	c #B70500",
",.	c #B50400",
"'.	c #E4C700",
").	c #D09400",
"!.	c #E7C900",
"~.	c #AA0100",
"{.	c #AB0100",
"].	c #AC0200",
"^.	c #E7CA00",
"            . . . . . . . . . . ",
"          + . @ # $ % & * = - . ",
"          + . ; > , ' ) & ! ~ . ",
"          + . { ] > ^ $ / ( ! . ",
"        _ + . : < [ > } | ) 1 . ",
"      2 3 3 3 4 5 6 7 > 8 9 0 . ",
"    3 3 a a a 3 b c < d e f g . ",
"  3 3 a h i . j k l m 6 7 n o . ",
"  p q l r i . s t u v m w 7 e . ",
"x y   z A B . . . C D . . . . . ",
"E F     G H I + + D J + + + +   ",
"K L M N N O P C Q R S           ",
"T U V N N W X Y Z S             ",
"  `  ...+.@.#.$.%.&.            ",
"  *.=.=.-.;.J >.,.              ",
"'.).!.).~.{.].).^.              "};
