/* XPM */
static const char * edit_active_layer_xpm[] = {
"16 16 84 1",
" 	c None",
".	c #009D00",
"+	c #005800",
"@	c #66C798",
"#	c #65C99A",
"$	c #64CB9A",
"%	c #64CD9B",
"&	c #64CF9D",
"*	c #64D09E",
"=	c #63D29F",
"-	c #62D4A0",
";	c #62D6A1",
">	c #61D8A3",
",	c #61D9A4",
"'	c #60DBA4",
")	c #61DDA6",
"!	c #66C597",
"~	c #65C798",
"{	c #65CA99",
"]	c #65CB9B",
"^	c #64CC9C",
"/	c #63D09E",
"(	c #63D4A0",
"_	c #62D8A2",
":	c #61D9A3",
"<	c #61DBA5",
"[	c #66C496",
"}	c #66C697",
"|	c #65C799",
"1	c #65C999",
"2	c #64CD9C",
"3	c #64CE9C",
"4	c #63D09D",
"5	c #62D29F",
"6	c #62D8A3",
"7	c #67C295",
"8	c #66C396",
"9	c #66C698",
"0	c #65CD9C",
"a	c #63D19D",
"b	c #61D8A2",
"c	c #67C094",
"d	c #66C799",
"e	c #63D29E",
"f	c #68BE92",
"g	c #68C094",
"h	c #65C898",
"i	c #64CB9B",
"j	c #65CD9B",
"k	c #63CE9D",
"l	c #63D19E",
"m	c #68BC91",
"n	c #68BE93",
"o	c #65CB9A",
"p	c #64CC9B",
"q	c #62D39E",
"r	c #69BB91",
"s	c #68BD92",
"t	c #67C496",
"u	c #69B990",
"v	c #68BB91",
"w	c #67BE93",
"x	c #67C093",
"y	c #69B78E",
"z	c #68B990",
"A	c #68BD91",
"B	c #65C697",
"C	c #64C999",
"D	c #6AB68E",
"E	c #69B88F",
"F	c #69B98F",
"G	c #66C397",
"H	c #66C898",
"I	c #6AB48C",
"J	c #6AB68D",
"K	c #68BB90",
"L	c #66C598",
"M	c #6BB28B",
"N	c #6BB48C",
"O	c #69B68E",
"P	c #67BF93",
"Q	c #67C194",
"R	c #66C497",
"S	c #65C899",
" ...............",
"+.@#$%&*=-;>,').",
"+.!~{]^&/=(;_:<.",
"+.[}|1$2345-;6:.",
"+.789@#]03a=-;b.",
"+.c7[}d#$23/e-;.",
"+.fg7[}h1ijkl=(.",
"+.mnc7[!h1opk*q.",
"+.rsnc7t!~1i^&/.",
"+.uvswx7[}d1$2k.",
"+.yzrAwc7[BhC$2.",
"+.DEFrsnx7G}H{i.",
"+.IJyuKswc7tL~1.",
"+.MNOyuKsPQ7R!S.",
"+...............",
"+++++++++++++++ "};
