/* XPM */
static const char* edit_active_layer_xpm[] = {
"16 16 88 1",
" 	c None",
".	c #009D00",
"+	c #005800",
"@	c #65C899",
"#	c #65CB9B",
"$	c #63CE9D",
"%	c #62D09F",
"&	c #62D4A1",
"*	c #61D7A3",
"=	c #60DAA5",
"-	c #60DEA6",
";	c #66C597",
">	c #65C799",
",	c #64CB9B",
"'	c #63CD9D",
")	c #63D09F",
"!	c #62D6A2",
"~	c #60D9A5",
"{	c #66C195",
"]	c #66C497",
"^	c #64CA9A",
"/	c #62D09E",
"(	c #62D3A1",
"_	c #AC9F00",
":	c #67BE93",
"<	c #67C095",
"[	c #66C397",
"}	c #65CA9B",
"|	c #63CD9C",
"1	c #62D3A0",
"2	c #B3A700",
"3	c #9A8C00",
"4	c #8D7D00",
"5	c #68BA90",
"6	c #67BD92",
"7	c #67C094",
"8	c #66C396",
"9	c #65C99B",
"0	c #64CD9C",
"a	c #63CF9E",
"b	c #AEA000",
"c	c #958500",
"d	c #69B78E",
"e	c #68BA91",
"f	c #68BD93",
"g	c #65C397",
"h	c #65C698",
"i	c #64C99A",
"j	c #64CC9C",
"k	c #A89B00",
"l	c #908000",
"m	c #6AB38D",
"n	c #67BC92",
"o	c #65C598",
"p	c #65C99A",
"q	c #A09200",
"r	c #928200",
"s	c #6BB08A",
"t	c #69B48C",
"u	c #69B68E",
"v	c #68B990",
"w	c #67BF94",
"x	c #8F7F00",
"y	c #8F8000",
"z	c #9B7C00",
"A	c #8F6F00",
"B	c #8F6E00",
"C	c #8C6B00",
"D	c #8A6900",
"E	c #886700",
"F	c #826000",
"G	c #DAAA00",
"H	c #DAA900",
"I	c #DFAB00",
"J	c #D8A900",
"K	c #E4BD00",
"L	c #DDB500",
"M	c #D09400",
"N	c #D6A100",
"O	c #E3C200",
"P	c #E8CB00",
"Q	c #E4C700",
"R	c #EBD400",
"S	c #E0BF00",
"T	c #E4C500",
"U	c #E7C900",
"V	c #E8CE00",
"W	c #E7CA00",
"      ..........",
"     +.@#$%&*=-.",
"     +.;>,')&!~.",
"     +.{]>^$/(!.",
"    _+.:<[>}|)1.",
"   234.5678>90a.",
"   bc4.def<ghij.",
"   kl4.md5n78op.",
"   qr4.stuvnw8h.",
"    x+..........",
"    y++++++++++ ",
" zABBCDEF       ",
"zzABBCDEFF      ",
" GHIJKLMN       ",
" OPQQRSTT       ",
"QMUMVMPMW       "};
