/* XPM */
static const char * edit_same_tag_xpm[] = {
"16 16 43 1",
" 	c None",
".	c #009D00",
"+	c #005800",
"@	c #65C899",
"#	c #65CB9B",
"$	c #63CE9D",
"%	c #62D09F",
"&	c #62D4A1",
"*	c #61D7A3",
"=	c #60DAA5",
"-	c #60DEA6",
";	c #60D9A5",
">	c #62D6A2",
",	c #62D3A0",
"'	c #63CF9E",
")	c #66C597",
"!	c #65C799",
"~	c #64CB9B",
"{	c #63CD9D",
"]	c #63D09F",
"^	c #64CC9C",
"/	c #66C195",
"(	c #66C497",
"_	c #64CA9A",
":	c #62D09E",
"<	c #62D3A1",
"[	c #65C99A",
"}	c #67BE93",
"|	c #67C095",
"1	c #66C397",
"2	c #65CA9B",
"3	c #63CD9C",
"4	c #000000",
"5	c #68BA90",
"6	c #67BD92",
"7	c #67C094",
"8	c #66C396",
"9	c #65C99B",
"0	c #64CD9C",
"a	c #B59E4B",
"b	c #C6941C",
"c	c #E0C35D",
"d	c #593A00",
"      ..........",
"     +.@#$%&*=-.",
"    ..........;.",
"   +.@#$%&*=-.>.",
"  ..........;.,.",
" +.@#$%&*=-.>.'.",
" +.)!~{]&>;.,.^.",
" +./(!_$:<>.'.[.",
" +.}|1!23],.^44.",
" +.5678!90'.4..4",
" aaaaaaaaa^.4.+4",
"bacccccccca..44 ",
"badcddcdcdca44  ",
"bacccccccca.    ",
"baaaaaaaaa+     ",
"bbbbbbbbb       "};
