/* XPM */
const char * edit_all_layers_xpm[] = {
"16 16 52 1",
" 	c None",
".	c #009D00",
"+	c #005800",
"@	c #65C899",
"#	c #65CB9B",
"$	c #63CE9D",
"%	c #62D09F",
"&	c #62D4A1",
"*	c #61D7A3",
"=	c #60DAA5",
"-	c #60DEA6",
";	c #60D9A5",
">	c #62D6A2",
",	c #62D3A0",
"'	c #63CF9E",
")	c #66C597",
"!	c #65C799",
"~	c #64CB9B",
"{	c #63CD9D",
"]	c #63D09F",
"^	c #64CC9C",
"/	c #66C195",
"(	c #66C497",
"_	c #64CA9A",
":	c #62D09E",
"<	c #62D3A1",
"[	c #65C99A",
"}	c #67BE93",
"|	c #67C095",
"1	c #66C397",
"2	c #65CA9B",
"3	c #63CD9C",
"4	c #65C698",
"5	c #68BA90",
"6	c #67BD92",
"7	c #67C094",
"8	c #66C396",
"9	c #65C99B",
"0	c #64CD9C",
"a	c #69B78E",
"b	c #68BA91",
"c	c #68BD93",
"d	c #65C397",
"e	c #64C99A",
"f	c #6AB38D",
"g	c #67BC92",
"h	c #65C598",
"i	c #6BB08A",
"j	c #69B48C",
"k	c #69B68E",
"l	c #68B990",
"m	c #67BF94",
"      ..........",
"     +.@#$%&*=-.",
"    ..........;.",
"   +.@#$%&*=-.>.",
"  ..........;.,.",
" +.@#$%&*=-.>.'.",
" +.)!~{]&>;.,.^.",
" +./(!_$:<>.'.[.",
" +.}|1!23],.^.4.",
" +.5678!90'.[...",
" +.abc|d4e^.4.+ ",
" +.fa5g78h[...  ",
" +.ijklgm84.+   ",
" +..........    ",
" ++++++++++     ",
"                "};
