/* XPM */
static const char* filter_all_layers_xpm[] = {
"16 16 73 1",
" 	c None",
".	c #009D00",
"+	c #005800",
"@	c #65C899",
"#	c #65CB9B",
"$	c #63CE9D",
"%	c #62D09F",
"&	c #62D4A1",
"*	c #61D7A3",
"=	c #60DAA5",
"-	c #60DEA6",
";	c #60D9A5",
">	c #62D6A2",
",	c #AC9F00",
"'	c #62D3A0",
")	c #B3A700",
"!	c #9A8C00",
"~	c #8D7D00",
"{	c #63CF9E",
"]	c #AEA000",
"^	c #958500",
"/	c #63CD9D",
"(	c #63D09F",
"_	c #64CC9C",
":	c #A89B00",
"<	c #908000",
"[	c #64CA9A",
"}	c #62D09E",
"|	c #62D3A1",
"1	c #65C99A",
"2	c #A09200",
"3	c #928200",
"4	c #65C799",
"5	c #65CA9B",
"6	c #63CD9C",
"7	c #65C698",
"8	c #68BA90",
"9	c #8F7F00",
"0	c #67C094",
"a	c #66C396",
"b	c #65C99B",
"c	c #64CD9C",
"d	c #69B78E",
"e	c #8F8000",
"f	c #68BD93",
"g	c #67C095",
"h	c #65C397",
"i	c #64C99A",
"j	c #9B7C00",
"k	c #8F6F00",
"l	c #8F6E00",
"m	c #8C6B00",
"n	c #8A6900",
"o	c #886700",
"p	c #826000",
"q	c #65C598",
"r	c #DAAA00",
"s	c #DAA900",
"t	c #DFAB00",
"u	c #D8A900",
"v	c #E4BD00",
"w	c #DDB500",
"x	c #D09400",
"y	c #D6A100",
"z	c #E3C200",
"A	c #E8CB00",
"B	c #E4C700",
"C	c #EBD400",
"D	c #E0BF00",
"E	c #E4C500",
"F	c #E7C900",
"G	c #E8CE00",
"H	c #E7CA00",
"      ..........",
"     +.@#$%&*=-.",
"    ..........;.",
"   +.@#$%&*=-.>.",
"  ..,.......;.'.",
" +.)!~%&*=-.>.{.",
" +.]^~/(&>;.'._.",
" +.:<~[$}|>.{.1.",
" +.23~456('._.7.",
" +.890a4bc{.1...",
" +.defgh7i_.7.+ ",
" jkllmnopq1...  ",
"jjkllmnopp7.+   ",
" rstuvwxy...    ",
" zABBCDEE++     ",
"BxFxGxAxH       "};
