/* XPM */
static const char* grid_xpm[] = {
"16 16 3 1",
" 	c None",
".	c #E6E6E6",
"+	c #808080",
"     .     .    ",
"    +.    +.    ",
"    +.    +.    ",
"    +.    +.    ",
" ...............",
"+++++.+++++.+++ ",
"    +.    +.    ",
"    +.    +.    ",
"    +.    +.    ",
"    +.    +.    ",
" ...............",
"+++++.+++++.+++ ",
"    +.    +.    ",
"    +.    +.    ",
"    +.    +.    ",
"    +     +     "};
