/* XPM */
const char* magnetism_xpm[] = {
"16 16 4 1",
" 	c None",
".	c #E6E6E6",
"+	c #808080",
"@	c #BF0000",
"     .     .    ",
"    +.    +.    ",
"    +.    +.    ",
"    +@    +@    ",
" ...@@@@@@@@@...",
"+++++@+++++@+++ ",
"    +@    +@    ",
"    +@    +@    ",
"    +@    +@    ",
"    +@    +@    ",
" ...@@@@@@@@@...",
"+++++@+++++@+++ ",
"    +.    +.    ",
"    +.    +.    ",
"    +.    +.    ",
"    +     +     "};
