/* XPM */
const char* move_backward_xpm[] = {
"16 16 70 1",
" 	c None",
".	c #BF0000",
"+	c #400000",
"@	c #AFC8CA",
"#	c #B3CDCF",
"$	c #B8D1D3",
"%	c #BDD5D7",
"&	c #C3DADB",
"*	c #C7DEE0",
"=	c #CCE2E4",
"-	c #D1E6E8",
";	c #AAC4C6",
">	c #AFC9CA",
",	c #B4CDCF",
"'	c #B9D1D3",
")	c #C2DADB",
"!	c #C8DEE0",
"~	c #CCE2E3",
"{	c #A6C0C2",
"]	c #BED5D7",
"^	c #C3D9DB",
"/	c #C8DDDF",
"(	c #A1BCBE",
"_	c #A6C0C3",
":	c #ABC4C7",
"<	c #BED5D8",
"[	c #830000",
"}	c #A1BDBE",
"|	c #AAC5C6",
"1	c #AFC9CB",
"2	c #2C0000",
"3	c #78898A",
"4	c #7B8C8E",
"5	c #7E8F91",
"6	c #819293",
"7	c #869596",
"8	c #889899",
"9	c #8C9B9C",
"0	c #8F9E9F",
"a	c #ABC5C6",
"b	c #B0C9CB",
"c	c #748688",
"d	c #788A8A",
"e	c #7F8F91",
"f	c #859596",
"g	c #899899",
"h	c #AAC4C7",
"i	c #728485",
"j	c #829293",
"k	c #899799",
"l	c #A5C1C2",
"m	c #ABC5C7",
"n	c #6E8182",
"o	c #728486",
"p	c #758688",
"q	c #829294",
"r	c #6B7D7F",
"s	c #748788",
"t	c #788A8B",
"u	c #677B7D",
"v	c #6B7E7F",
"w	c #6E8183",
"x	c #718486",
"y	c #758788",
"z	c #798A8B",
"A	c #647879",
"B	c #677B7C",
"C	c #617677",
"D	c #647979",
"E	c #718485",
"      ..........",
"     +.@#$%&*=-.",
"     +.;>,'%)!~.",
"     +.{;@,']^/.",
"     +.(_:>,'<^.",
" [ [ [.[}[|1,'%.",
"2 34567890[ab,'.",
" [cd4e6fg9(_hb,.",
"2 ic34ej7k[(lm1.",
" [nopd4eq7......",
"2 rnist4e6[++++ ",
" [uvwxyz4e      ",
"2 ABvnocz4[     ",
" [CDuvnEyt      ",
"2 [ [ [ [ [     ",
" 2 2 2 2 2      "};
