/* XPM */
static const char* move_forward_xpm[] = {
"16 16 70 1",
" 	c None",
".	c #830000",
"+	c #2C0000",
"@	c #78898A",
"#	c #7B8C8E",
"$	c #7E8F91",
"%	c #819293",
"&	c #869596",
"*	c #889899",
"=	c #8C9B9C",
"-	c #8F9E9F",
";	c #748688",
">	c #788A8A",
",	c #7F8F91",
"'	c #859596",
")	c #899899",
"!	c #728485",
"~	c #829293",
"{	c #899799",
"]	c #6E8182",
"^	c #728486",
"/	c #758688",
"(	c #829294",
"_	c #BF0000",
":	c #788A8B",
"<	c #400000",
"[	c #AFC8CA",
"}	c #B3CDCF",
"|	c #B8D1D3",
"1	c #BDD5D7",
"2	c #C3DADB",
"3	c #C7DEE0",
"4	c #CCE2E4",
"5	c #D1E6E8",
"6	c #758788",
"7	c #798A8B",
"8	c #AAC4C6",
"9	c #AFC9CA",
"0	c #B4CDCF",
"a	c #B9D1D3",
"b	c #C2DADB",
"c	c #C8DEE0",
"d	c #CCE2E3",
"e	c #A6C0C2",
"f	c #BED5D7",
"g	c #C3D9DB",
"h	c #C8DDDF",
"i	c #718485",
"j	c #A1BCBE",
"k	c #A6C0C3",
"l	c #ABC4C7",
"m	c #BED5D8",
"n	c #9CB7BA",
"o	c #A1BDBE",
"p	c #AAC5C6",
"q	c #AFC9CB",
"r	c #97B3B6",
"s	c #9CB8BA",
"t	c #A1BCBF",
"u	c #A5C1C3",
"v	c #ABC5C6",
"w	c #B0C9CB",
"x	c #92AFB1",
"y	c #97B3B5",
"z	c #AAC4C7",
"A	c #8EACAE",
"B	c #92B0B1",
"C	c #97B4B6",
"D	c #A5C1C2",
"E	c #ABC5C7",
"      . . . . . ",
"     + @#$%&*=-.",
"      .;>#,%')= ",
"     + !;@#,~&{.",
"      .]^/>#,(& ",
" __________:#,%.",
"<_[}|12345_67#, ",
"<_890a1bcd_^;7#.",
"<_e8[0afgh_]i6: ",
"<_jkl90amg_. . .",
"<_noepq0a1_ + + ",
"<_rstuvw0a_     ",
"<_xysjkzw0_     ",
"<_ABCsjDEq_     ",
"<__________     ",
"<<<<<<<<<<      "};
