/* XPM */
static const char* overview_xpm[] = {
"16 16 14 1",
" 	c None",
".	c #00460A",
"+	c #6D7B0D",
"@	c #4F370A",
"#	c #585858",
"$	c #6D4D0D",
"%	c #FF0000",
"&	c #9FB313",
"*	c #808080",
"=	c #73510E",
"-	c #00660E",
";	c #9F7013",
">	c #1F98FF",
",	c #1568AF",
"  ....      +   ",
" .@@@@.   +++++ ",
"#@@@@@@  ##$$$  ",
"#@@@@@@   ##$   ",
"######     #$   ",
"  %%%%%%%%%%%%. ",
"  %&   *===--%@ ",
" +%&&& ****==%  ",
"##%;;     ***%  ",
" #%;    --->>%..",
"  %;    -==>>%@@",
" .%->>>-===>>%@@",
"#@%=----===>>%@@",
"#@%%%%%%%%%%%%#@",
"#####@@@   ,,   ",
"    ###         "};
