/* XPM */
static const char* relationship_xpm[] = {
"16 16 4 1",
" 	c None",
".	c #E6FF9D",
"+	c #BF0000",
"@	c #00660E",
"        ........",
"        .      .",
"        .      .",
"        .  ++  .",
"        .  ++  .",
"    @   .      .",
"    @   ++     .",
"    @  ++.......",
"   @@@++        ",
"  @ @ @         ",
"@@@@++@@@       ",
"  @ + @         ",
"   @@@          ",
"    @           ",
"    @           ",
"    @           "};
