/* XPM */
/* From the Gnome icon theme. */
const char* compile_xpm[] = {
/* columns rows colors chars-per-pixel */
"16 16 27 1",
"  c #424341",
". c #555753",
"X c #565854",
"o c #585B56",
"O c #585B57",
"+ c #6C6E6A",
"@ c #737471",
"# c #737571",
"$ c #888A85",
"% c #9FA09D",
"& c #AEAEAB",
"* c #ADADAC",
"= c #AFB0AD",
"- c #C5C5C4",
"; c #C7C8C6",
": c #CFCFCE",
"> c #E1E1E0",
", c #E2E2E0",
"< c #EEEEEC",
"1 c #F1F1F1",
"2 c #F2F3F2",
"3 c gray97",
"4 c #F8F8F8",
"5 c #FBFBFB",
"6 c #FCFCFB",
"7 c #FEFEFE",
"8 c None",
/* pixels */
"8888888888$$$888",
"8888888888+<+888",
"888888888 272 88",
"8888888$+1*@*1+$",
"8888888$<7#8#7<$",
"8888888$+1*@*1+$",
"888888888 272 88",
"888$$$88X.+<+.X8",
"888+<+8.:,$$$,:.",
"88 272 .>46364>.",
"$+1*@*1+$5%.%5&o",
"$<7#8#7<$3.8.3-8",
"$+1*@*1+$5%.%5&o",
"88 272 .>46364>.",
"888+<+8.:,=;=,:.",
"888$$$88X.O8O.X8"
};
