/* XPM */
/* From the Gnome icon theme. */
const char* player_start_xpm[] = {
/* columns rows colors chars-per-pixel */
"16 16 36 1",
"  c #3D3F3D",
". c #444644",
"X c #464744",
"o c #4B4C4A",
"O c #535452",
"+ c #555753",
"@ c #60615F",
"# c #646462",
"$ c #686866",
"% c #757675",
"& c #868786",
"* c #9B9B9A",
"= c #A1A2A0",
"- c #A8A8A6",
"; c #A9AAA8",
": c #B3B3B2",
"> c #BABBB8",
", c #BABCB8",
"< c #C5C7C4",
"1 c #C8C9C6",
"2 c #CFD0CE",
"3 c #D6D7D5",
"4 c #DBDBDA",
"5 c #DEDFDD",
"6 c #E2E3E1",
"7 c #E3E4E2",
"8 c #E3E4E3",
"9 c #E5E6E5",
"0 c #E6E6E5",
"q c #EDEDEC",
"w c #EEEEED",
"e c #F1F2F1",
"r c #FBFBFB",
"t c #FEFEFD",
"y c gray100",
"u c None",
/* pixels */
"uuuuuuuuuuuuuuuu",
"uuuuuuuuuuuuuuuu",
"uuuuuuuuuuuuuuuu",
"u+++uuu Xuuuu Xu",
"u+0+uuo;Xuuuo;Xu",
"u+1+.#4rXu.#4rXu",
"u+2+*8>7Xo*8>7Xu",
"u+3;y,<qX-y,<qXu",
"u+5+=w6eXO=w6eXu",
"u+5+%$9tXu%$9tXu",
"u+5+uu@:Xuuu@:Xu",
"u+++uuu&Xuuuu&Xu",
"uuuuuuuuuuuuuuuu",
"uuuuuuuuuuuuuuuu",
"uuuuuuuuuuuuuuuu",
"uuuuuuuuuuuuuuuu"
};
