/* XPM */
static char *bear_factory[] = {
/* columns rows colors chars-per-pixel */
"32 32 120 2",
"   c #1B1102",
".  c #261803",
"X  c #2C1D05",
"o  c #301F06",
"O  c #332206",
"+  c #3B2605",
"@  c #3E2A06",
"#  c #3B2A0B",
"$  c #3D330F",
"%  c #432C06",
"&  c #432D09",
"*  c #482F08",
"=  c #433106",
"-  c #4B3307",
";  c #42320B",
":  c #4C3209",
">  c #4D3A0F",
",  c #52350A",
"<  c #56390B",
"1  c #5B3C0C",
"2  c #4A3612",
"3  c #433C14",
"4  c #4E3C13",
"5  c #523D14",
"6  c #563F1B",
"7  c #264023",
"8  c #2D4B29",
"9  c #3F4B22",
"0  c #375B32",
"q  c #385D33",
"w  c #5F400E",
"e  c #47461B",
"r  c #4A4C1D",
"t  c #544116",
"y  c #5C4414",
"u  c #5E4B17",
"i  c #55411A",
"p  c #5B431A",
"a  c #56491A",
"s  c #5C4B1C",
"d  c #61410E",
"f  c #654510",
"g  c #694712",
"h  c #664A14",
"j  c #6C4913",
"k  c #634D1A",
"l  c #724E15",
"z  c #64521D",
"x  c #494E21",
"c  c #5B4521",
"v  c #5D4B23",
"b  c #5E4D28",
"n  c #4B5323",
"m  c #545323",
"M  c #5C5621",
"N  c #5D5C26",
"B  c #5F5D30",
"V  c #634D24",
"C  c #694F26",
"Z  c #645120",
"A  c #6A5425",
"S  c #655C23",
"D  c #66532B",
"F  c #6A552C",
"G  c #605D28",
"H  c #6E592D",
"J  c #725E2E",
"K  c #6C5631",
"L  c #695D34",
"P  c #725B35",
"I  c #725E3B",
"U  c #4C612E",
"Y  c #54612D",
"T  c #5F692F",
"R  c #4B6735",
"E  c #486A37",
"W  c #416838",
"Q  c #4A6D39",
"!  c #526430",
"~  c #526C35",
"^  c #5C6C33",
"/  c #4F7039",
"(  c #5F7034",
")  c #51763D",
"_  c #597339",
"`  c #57783C",
"'  c #5E7A3C",
"]  c #676126",
"[  c #62632A",
"{  c #666635",
"}  c #696435",
"|  c #636937",
" . c #786636",
".. c #74623C",
"X. c #7D6A3B",
"o. c #627537",
"O. c #6C743E",
"+. c #4E7D44",
"@. c #547A41",
"#. c #776542",
"$. c #796541",
"%. c #766B42",
"&. c #806D4A",
"*. c #558346",
"=. c #5C8343",
"-. c #5F8846",
";. c #558649",
":. c #5C8C4B",
">. c #5F934F",
",. c #5A9451",
"<. c #5E9C56",
"1. c #638242",
"2. c #638847",
"3. c #618F4B",
"4. c #62954F",
"5. c #609650",
"6. c #619C56",
"7. c #609F58",
"8. c #61A159",
"9. c None",
/* pixels */
"9.9.9.9.9.9.9.9.9.9.9.9.9.9.9.9.9.9.9.9.9.9.9.9.9.9.9.9.9.9.9.9.",
"9.9.9.9.9.9.9.9.9.9.9.9.9.9.9.9.9.9.9.9.9.9.9.9.9.9.9.9.9.9.9.9.",
"9.9.9.9.9.9.9.9.+ * , , < < < < < < < , < , & o 9.9.9.9.9.9.9.9.",
"9.9.9.9.9.9.% < < < 1 u ^ ' t d d w d w 1 w < 1 < O 9.9.9.9.9.9.",
"9.9.9.9.9., < 1 1 w ' 7.8.:.y g f f f d d w 1 1 1 < & 9.9.9.9.9.",
"9.9.9.9., < 1 1 1.:.7.4.' G S S z f j f g d d d 1 1 < & 9.9.9.9.",
"9.9.9.% < y o.3.6.<.` 3.8.8.8.8.8.,.s j j f f d d 1 1 < . 9.9.9.",
"9.9.9.< u 4.8.<.^ 8.8.8.8.8.8.8.8.8.7.,.<.<.*.a d w 1 < , 9.9.9.",
"9.9.O < 2.8.-.M ] 8.8.8.8.8.8.8.8.8.8.8.8.8.:.a f d w 1 < 9.9.9.",
"9.9.& < N M d h 4.8.8.8.8.8.8.8.8.8.8.8.=.] j j g d w 1 < . 9.9.",
"9.9.* 1 w d d 1.8.8.8.8.8.8.8.8.8.8.8.8.m l j j g d w w 1 o 9.9.",
"9.9.* 1 1 d k 8.8.8.8.8.8.8.8.8.8.8.7.7.>.k j j g d w 1 1 o 9.9.",
"9.9.: < w d z <.8.8.8.8.8.8.8.8.8.8.8.8.8.@.h j g d w 1 < o 9.9.",
"9.9.* < 1 w T <.8.8.<.8.<.8.8.8.8.8.8.8.8.8.;.N h d 1 1 < o 9.9.",
"9.9.* < 1 1 _ ,.Y *.[ 7.=.6.6.7.8.8.8.8.8.8.8.8.7.,.n 1 < o 9.9.",
"9.9.* < , > X.Y t v z R t k o.6.8.8.8.8.8.8.8.8.8.7.<.4 < o 9.9.",
"9.9.* , : ..P 5 b F x $ s Z | 5.8.8.8.8.8.8.8.8.8.8.8.x < X 9.9.",
"9.9.% * D  .< V ..n # p { 5 > k 2.8.8.8.8.8.8.8.8.8.7.e , X 9.9.",
"9.9.% 6 L 1 _ %.5 3 p X.a 3 6 F T 8.8.<.8.8.8.8.8.8.) - , X 9.9.",
"9.9.& V , p #.4 : m O.s # i K p T 8.7.,.8.8.8.8.6.Y , , : . 9.9.",
"9.9.i 4 < P 5 - 5 1.v @ 2 I B m <.<.<.8.8.<.@.Y , , , - : . 9.9.",
"9.9.*.e V t ; , V U @ $ F L x , | :.8.e < , , , , - * * * . 9.9.",
"9.7 R p t % - s A = @ a K : ; i D ' ;.: , , - , : * * * & 9.9.9.",
"9.9.# i r Q y H - @ 4 H : ; v $.v 8.Q : - * * * * & & % % 9.9.9.",
"9.9.9.n ;.; V > = ; V : ; i &.} @.7.E : * * * * & % % % X 9.9.9.",
"9.9.9.W $ 5 & % # p : % 2 $.c x ` ` +.# % % % % % % % + 9.9.9.9.",
"9.9.9.9.X : + @ p : % & K c @ % % x 6.x % % % + + + +   9.9.9.9.",
"9.0 q 9.9.. + 4 s @ # c i @ @ @ @ @ ~ *.+ + @ + + +   9.9.9.9.9.",
"9.9.8 9.9.9.9.# % + 4 6 + + + + + + + + + + + O . 9.9.9.9.9.9.9.",
"9.9.9.9.9.9.9.9.9.9.9.                      9.9.9.9.9.9.9.9.9.9.",
"9.9.9.9.9.9.9.9.9.9.9.9.9.9.9.9.9.9.9.9.9.9.9.9.9.9.9.9.9.9.9.9.",
"9.9.9.9.9.9.9.9.9.9.9.9.9.9.9.9.9.9.9.9.9.9.9.9.9.9.9.9.9.9.9.9."
};
