/* XPM */
const char *circ_out_xpm[] = {
/* columns rows colors chars-per-pixel */
"32 24 56 1 ",
"  c #79B4EF",
". c #6CB6FF",
"X c #71B8FF",
"o c #76BBFF",
"O c #77BBFF",
"+ c #7CBEFF",
"@ c #87BBEF",
"# c #80C0FF",
"$ c #8AC2FA",
"% c #8BC5FF",
"& c #8FC6FC",
"* c #93C9FF",
"= c #96CBFF",
"- c #99CCFF",
"; c #9ECFFF",
": c #9FCFFF",
"> c #A0C8EF",
", c #A1D0FF",
"< c #A2D1FF",
"1 c #A4D2FF",
"2 c #A9D4FF",
"3 c #AED7FF",
"4 c #B3D9FF",
"5 c #B6DBFF",
"6 c #BFDFFF",
"7 c #C2D9EF",
"8 c #CEDFEF",
"9 c #C3E1FF",
"0 c #C6E3FF",
"q c #CAE5FF",
"w c #CEE7FF",
"e c #D4EAFF",
"r c #D6EBFF",
"t c #D8ECFF",
"y c #DDEEFF",
"u c #E2E8EF",
"i c #EFEFEF",
"p c #F0EFEF",
"a c #F0F0EF",
"s c #E3EBF3",
"d c #EFF1F3",
"f c #E5F2FF",
"g c #E6F3FF",
"h c #EBF5FF",
"j c #EEF7FF",
"k c #EFF7FF",
"l c #F3F3F3",
"z c #F4F3F3",
"x c #F5F4F3",
"c c #F5F5F4",
"v c #F1F8FF",
"b c #F4FAFF",
"n c #F6FBFF",
"m c #FAFAFA",
"M c #FBFDFF",
"N c #FEFEFE",
/* pixels */
"mllllllllllllllllzlxxxxdsyrq99vN",
"miiliiiiiliiiiiaaapu7>@  $-<25vN",
"NNNNNNNNNNNNNNNNk6*+%3rfnNNNNNNN",
"NNNNNNNNNNNNNNr=o=9kNNNNNNNNNNNN",
"NNNNNNNNNNNNt%o5hNNNNNNNNNNNNNNN",
"NNNNNNNNNNk*X5vNNNNNNNNNNNNNNNNN",
"NNNNNNNNN9.<vNNNNNNNNNNNNNNNNNNN",
"NNNNNNNn-XrNNNNNNNNNNNNNNNNNNNNN",
"NNNNNNk+%vNNNNNNNNNNNNNNNNNNNNNN",
"NNNNNk+:MNNNNNNNNNNNNNNNNNNNNNNN",
"NNNNv+:NNNNNNNNNNNNNNNNNNNNNNNNN",
"NNNN**NNNNNNNNNNNNNNNNNNNNNNNNNN",
"NNN5OnNNNNNNNNNNNNNNNNNNNNNNNNNN",
"NNf.yNNNNNNNNNNNNNNNNNNNNNNNNNNN",
"NN*1NNNNNNNNNNNNNNNNNNNNNNNNNNNN",
"NfXkNNNNNNNNNNNNNNNNNNNNNNNNNNNN",
"N:2NNNNNNNNNNNNNNNNNNNNNNNNNNNNN",
"n+fNNNNNNNNNNNNNNNNNNNNNNNNNNNNN",
"r%NNNNNNNNNNNNNNNNNNNNNNNNNNNNNN",
"4<NNNNNNNNNNNNNNNNNNNNNNNNNNNNNN",
"<6NNNNNNNNNNNNNNNNNNNNNNNNNNNNNN",
"*wNNNNNNNNNNNNNNNNNNNNNNNNNNNNNN",
"%8iiiiiiiiiiiiiiiiiiiiiiiiiiilNN",
"fdcccxlllccccllcccxccclcccccccNN"
};
