/* XPM */
const char *expo_out_xpm[] = {
/* columns rows colors chars-per-pixel */
"32 24 56 1 ",
"  c #7AB5EF",
". c #7BB5EF",
"X c #69B4FF",
"o c #7ABDFF",
"O c #7DBEFF",
"+ c #82B9EF",
"@ c #97C3EF",
"# c #84C1FF",
"$ c #86C3FF",
"% c #87C3FF",
"& c #8DC4FA",
"* c #8EC5FD",
"= c #95CAFF",
"- c #99CDFF",
"; c #9ECEFF",
": c #9FCFFF",
"> c #B4D1EF",
", c #A1D0FF",
"< c #A4D1FF",
"1 c #A9D4FF",
"2 c #ACD5FF",
"3 c #B1D8FF",
"4 c #B5DAFF",
"5 c #BADDFF",
"6 c #BCDEFF",
"7 c #C5DBF0",
"8 c #D7E3EF",
"9 c #C3E1FF",
"0 c #C4E2FF",
"q c #C7E3FF",
"w c #C9E4FF",
"e c #CFE7FF",
"r c #DFE9F4",
"t c #D0E8FF",
"y c #D4E9FF",
"u c #DEEDFB",
"i c #D8EBFF",
"p c #DBEDFF",
"a c #DCEEFF",
"s c #EFEFEF",
"d c #F0EFED",
"f c #F2F0EF",
"g c #E6ECF3",
"h c #EEF0F3",
"j c #E3F1FF",
"k c #E5F2FF",
"l c #EAF5FF",
"z c #F3F3F3",
"x c #F7F5F3",
"c c #F4F4F4",
"v c #F5F5F4",
"b c #F1F8FF",
"n c #F4FAFF",
"m c #FAFAFA",
"M c #FBFDFF",
"N c #FEFEFE",
/* pixels */
"mzzzzzzzzzzzzxxxhgruaittwwwww9nN",
"msszssssssfs8>@+   &-::<<11113bN",
"NNNNNNNNNMq#O-6ilnNNNNNNNNNNNNNN",
"NNNNNNNNpO#wnNNNNNNNNNNNNNNNNNNN",
"NNNNNNNwX5NNNNNNNNNNNNNNNNNNNNNN",
"NNNNNNwXyNNNNNNNNNNNNNNNNNNNNNNN",
"NNNNNkXtNNNNNNNNNNNNNNNNNNNNNNNN",
"NNNNN#2NNNNNNNNNNNNNNNNNNNNNNNNN",
"NNNN9oMNNNNNNNNNNNNNNNNNNNNNNNNN",
"NNNMowNNNNNNNNNNNNNNNNNNNNNNNNNN",
"NNNq#NNNNNNNNNNNNNNNNNNNNNNNNNNN",
"NNN#qNNNNNNNNNNNNNNNNNNNNNNNNNNN",
"NNjonNNNNNNNNNNNNNNNNNNNNNNNNNNN",
"NN4:NNNNNNNNNNNNNNNNNNNNNNNNNNNN",
"NN%tNNNNNNNNNNNNNNNNNNNNNNNNNNNN",
"NlOnNNNNNNNNNNNNNNNNNNNNNNNNNNNN",
"N9=NNNNNNNNNNNNNNNNNNNNNNNNNNNNN",
"N-9NNNNNNNNNNNNNNNNNNNNNNNNNNNNN",
"M#kNNNNNNNNNNNNNNNNNNNNNNNNNNNNN",
"k#MNNNNNNNNNNNNNNNNNNNNNNNNNNNNN",
"q=NNNNNNNNNNNNNNNNNNNNNNNNNNNNNN",
"<3NNNNNNNNNNNNNNNNNNNNNNNNNNNNNN",
"*7dsssssssssssssssssssssssssszNN",
"jzvvvvzzzvvvvzzvvvzvvvzvvvvvvvNN"
};
