/* XPM */
const char *expo_in_xpm[] = {
/* columns rows colors chars-per-pixel */
"32 24 52 1 ",
"  c #7AB4ED",
". c #7BB4ED",
"X c #6EB7FF",
"o c #77BBFF",
"O c #7BBDFF",
"+ c #7FBFFF",
"@ c #91BFED",
"# c #82BBF3",
"$ c #8FC3F6",
"% c #82C1FF",
"& c #86C3FF",
"* c #8AC5FF",
"= c #93C9FF",
"- c #96CBFF",
"; c #99CCFF",
": c #9DCEFF",
"> c #AACCED",
", c #A0D0FF",
"< c #A1D0FF",
"1 c #A5D3FF",
"2 c #A6D3FF",
"3 c #AED6FF",
"4 c #BBDDFF",
"5 c #CADCED",
"6 c #C0E0FF",
"7 c #C4E2FF",
"8 c #CBE5FF",
"9 c #CCE6FF",
"0 c #D1E8FF",
"q c #D5EAFF",
"w c #D9ECFF",
"e c #DFEFFF",
"r c #E6EAED",
"t c #EDEDED",
"y c #EFEFEE",
"u c #EFEFEF",
"i c #E8EEF4",
"p c #E2EDF8",
"a c #E5EEF8",
"s c #E0F0FF",
"d c #E5F1FE",
"f c #E8F4FF",
"g c #EDF6FF",
"h c #F3F3F3",
"j c #F4F4F4",
"k c #F7F6F4",
"l c #F9F7F4",
"z c #F2F8FF",
"x c #F6FAFF",
"c c #FAFAFA",
"v c #F9FDFF",
"b c #FEFEFE",
/* pixels */
"chhhhhhhhhhhhhhhhhhhhhhhhhhhhpzb",
"cuuhuuuuuhuuuuuhuuuuuhuuuuuhu$wb",
"bbbbbbbbbbbbbbbbbbbbbbbbbbbbx%gb",
"bbbbbbbbbbbbbbbbbbbbbbbbbbbbs&bb",
"bbbbbbbbbbbbbbbbbbbbbbbbbbbb7:bb",
"bbbbbbbbbbbbbbbbbbbbbbbbbbbb<4bb",
"bbbbbbbbbbbbbbbbbbbbbbbbbbbb%ebb",
"bbbbbbbbbbbbbbbbbbbbbbbbbbbs%vbb",
"bbbbbbbbbbbbbbbbbbbbbbbbbbb4:bbb",
"bbbbbbbbbbbbbbbbbbbbbbbbbbb*8bbb",
"bbbbbbbbbbbbbbbbbbbbbbbbbbgOzbbb",
"bbbbbbbbbbbbbbbbbbbbbbbbbb4=bbbb",
"bbbbbbbbbbbbbbbbbbbbbbbbbv+0bbbb",
"bbbbbbbbbbbbbbbbbbbbbbbbb9Ovbbbb",
"bbbbbbbbbbbbbbbbbbbbbbbbb&6bbbbb",
"bbbbbbbbbbbbbbbbbbbbbbbb8ovbbbbb",
"bbbbbbbbbbbbbbbbbbbbbbbgX9bbbbbb",
"bbbbbbbbbbbbbbbbbbbbbbv*,bbbbbbb",
"bbbbbbbbbbbbbbbbbbbbbv=%xbbbbbbb",
"bbbbbbbbbbbbbbbbbbbbs%*zbbbbbbbb",
"bbbbbbbbbbbbbbbbbbp<X3xbbbbbbbbb",
"bbbbbbbbbbbvcfe41&O1fbbbbbbbbbbb",
"8<112<::;-=#...$>5ruuuuuuuuuuhbb",
"e80000qwwsdaihkklkkkkkhjhkkhkkbb"
};
