/* XPM */
const char *quad_in_out_xpm[] = {
/* columns rows colors chars-per-pixel */
"32 24 50 1 ",
"  c #72B1EF",
". c #6FB0F1",
"X c #69B5FF",
"o c #6EB7FF",
"O c #70B8FF",
"+ c #79B9F8",
"@ c #7ABDFF",
"# c #7EBFFF",
"$ c #88BBED",
"% c #80C0FF",
"& c #8AC5FF",
"* c #96CBFF",
"= c #97CCFF",
"- c #98CCFF",
"; c #9FCFFF",
": c #A1C8EF",
"> c #A5D2FF",
", c #A8D3FF",
"< c #ADD6FF",
"1 c #B4DAFF",
"2 c #BBDDFF",
"3 c #BEDEFF",
"4 c #BFDFFF",
"5 c #C6DAED",
"6 c #DDE6EF",
"7 c #C1E0FF",
"8 c #C6E3FF",
"9 c #CBE5FF",
"0 c #D5EAFF",
"q c #D7ECFF",
"w c #DDEBFA",
"e c #DAEDFF",
"r c #DFEFFF",
"t c #EFEEED",
"y c #EFEFEF",
"u c #ECF1F6",
"i c #E3F2FF",
"p c #E7F3FF",
"a c #E9F4FF",
"s c #F3F3F3",
"d c #F4F3F3",
"f c #F7F5F3",
"g c #F5F4F4",
"h c #F8F6F4",
"j c #F0F8FF",
"k c #F2F8FF",
"l c #F6FAFF",
"z c #FAFAFA",
"x c #FBFDFF",
"c c #FEFEFE",
/* pixels */
"zssssssssssssssssssssssssfuw98lc",
"zyysyyyyysyyyyysyyyyysyy6: +-1kc",
"ccccccccccccccccccccccx1O-qxcccc",
"ccccccccccccccccccccca%%rccccccc",
"cccccccccccccccccccceo>ccccccccc",
"ccccccccccccccccccceX4cccccccccc",
"cccccccccccccccccceX7ccccccccccc",
"cccccccccccccccccao4cccccccccccc",
"cccccccccccccccck@,ccccccccccccc",
"cccccccccccccccc-*cccccccccccccc",
"ccccccccccccccc7Okcccccccccccccc",
"ccccccccccccccpo0ccccccccccccccc",
"cccccccccccccc&>cccccccccccccccc",
"ccccccccccccc1@lcccccccccccccccc",
"cccccccccccceXrccccccccccccccccc",
"cccccccccccao4cccccccccccccccccc",
"cccccccccck@,ccccccccccccccccccc",
"ccccccccck%-cccccccccccccccccccc",
"cccccccck#=xcccccccccccccccccccc",
"cccccccrO>xccccccccccccccccccccc",
"cccccl<X2ccccccccccccccccccccccc",
"ccca1@&pcccccccccccccccccccccccc",
"9;&.$5yyyyyyyyyyyyyyyyyyyyyyyscc",
"r9euggsssggggdsgggsgggsgggggggcc"
};
