/* XPM */
const char *quint_out_xpm[] = {
/* columns rows colors chars-per-pixel */
"32 24 56 1 ",
"  c #75B2EE",
". c #7CB6EF",
"X c #6EB7FF",
"o c #70B8FF",
"O c #78BCFF",
"+ c #7EBFFF",
"@ c #7FC0FF",
"# c #81BBF5",
"$ c #9AC5EF",
"% c #82C1FF",
"& c #85C2FF",
"* c #88C4FF",
"= c #8EC5FD",
"- c #90C8FF",
"; c #95CAFF",
": c #9BCDFF",
"> c #9DCEFF",
", c #A4D1FF",
"< c #A4D2FF",
"1 c #A9D4FF",
"2 c #ADD7FF",
"3 c #BED7F0",
"4 c #B5DAFF",
"5 c #B7DBFF",
"6 c #BFDFFF",
"7 c #C8DBEF",
"8 c #C3E1FF",
"9 c #C6E3FF",
"0 c #C7E4FF",
"q c #C8E4FF",
"w c #CEE7FF",
"e c #DFEBF7",
"r c #D2E8FF",
"t c #D7EBFF",
"y c #DAEDFF",
"u c #DDEEFF",
"i c #DFEFFF",
"p c #EFEFEF",
"a c #F0EFED",
"s c #F2F0EF",
"d c #E8EDF3",
"f c #EFF3F6",
"g c #E4F1FE",
"h c #E6F3FF",
"j c #ECF5FF",
"k c #EEF6FF",
"l c #F3F3F3",
"z c #F5F4F3",
"x c #F4F4F4",
"c c #F5F5F4",
"v c #F0F8FF",
"b c #F6FAFF",
"n c #FAFAFA",
"m c #F8FBFF",
"M c #FBFDFF",
"N c #FEFEFE",
/* pixels */
"nllllllllllllzzldeyrqq96888869bN",
"npplpppppfpap7$. #;>,115222424kN",
"NNNNNNNNNNN9++2yvNNNNNNNNNNNNNNN",
"NNNNNNNNNk*OqMNNNNNNNNNNNNNNNNNN",
"NNNNNNNNio,mNNNNNNNNNNNNNNNNNNNN",
"NNNNNNNhX5NNNNNNNNNNNNNNNNNNNNNN",
"NNNNNNbO2NNNNNNNNNNNNNNNNNNNNNNN",
"NNNNNN:-NNNNNNNNNNNNNNNNNNNNNNNN",
"NNNNNrXkNNNNNNNNNNNNNNNNNNNNNNNN",
"NNNNMO8NNNNNNNNNNNNNNNNNNNNNNNNN",
"NNNN8%NNNNNNNNNNNNNNNNNNNNNNNNNN",
"NNNMOwNNNNNNNNNNNNNNNNNNNNNNNNNN",
"NNN9+MNNNNNNNNNNNNNNNNNNNNNNNNNN",
"NNN&8NNNNNNNNNNNNNNNNNNNNNNNNNNN",
"NNhObNNNNNNNNNNNNNNNNNNNNNNNNNNN",
"NN1,NNNNNNNNNNNNNNNNNNNNNNNNNNNN",
"Nb+yNNNNNNNNNNNNNNNNNNNNNNNNNNNN",
"Nt%NNNNNNNNNNNNNNNNNNNNNNNNNNNNN",
"N,2NNNNNNNNNNNNNNNNNNNNNNNNNNNNN",
"M%iNNNNNNNNNNNNNNNNNNNNNNNNNNNNN",
"i%MNNNNNNNNNNNNNNNNNNNNNNNNNNNNN",
"2>NNNNNNNNNNNNNNNNNNNNNNNNNNNNNN",
"=3spppppppppppppppppppppppppplNN",
"gfxxcclllccccllccclccclcccccccNN"
};
