/* XPM */
const char *back_in_out_xpm[] = {
/* columns rows colors chars-per-pixel */
"32 24 64 1 ",
"  c #64ADF5",
". c #6EB3F8",
"X c #6CB6FF",
"o c #70B3F6",
"O c #75B5F4",
"+ c #78B7F6",
"@ c #70B6FB",
"# c #73B9FF",
"$ c #76BBFF",
"% c #77BBFF",
"& c #7CBDFF",
"* c #81BBF4",
"= c #88BFF6",
"- c #84C2FF",
"; c #89C1F9",
": c #88C4FF",
"> c #8EC7FF",
", c #93C2F0",
"< c #91C4F6",
"1 c #98C7F6",
"2 c #9EC9F4",
"3 c #93C9FF",
"4 c #97CBFF",
"5 c #9FCCF9",
"6 c #99CCFF",
"7 c #9CCDFF",
"8 c #A1D0FF",
"9 c #A6D2FF",
"0 c #A8D4FF",
"q c #ADD6FF",
"w c #B1D8FF",
"e c #B7DBFF",
"r c #B8DAFC",
"t c #B8DBFD",
"y c #BBDDFF",
"u c #CADCEF",
"i c #CFDEED",
"p c #C8DFF5",
"a c #DEE6EE",
"s c #CEE1F3",
"d c #C1E0FF",
"f c #C2E1FF",
"g c #C9E4FF",
"h c #CFE7FF",
"j c #D7EBFF",
"k c #D8ECFF",
"l c #DFEFFF",
"z c #E1E7EE",
"x c #E2E8ED",
"c c #EEEDED",
"v c #EFEFEF",
"b c #F0EFED",
"n c #F2F0EF",
"m c #E5EFFA",
"M c #E3F1FF",
"N c #E4F2FF",
"B c #EAF4FF",
"V c #EDF6FF",
"C c #F0F0F0",
"Z c #F4F4F4",
"A c #F1F8FF",
"S c #F4F9FF",
"D c #FBFBFB",
"F c #FFFFFF",
/* pixels */
"FFFFFFFFFFFFFFFFFFFFFAjfgkAFFFFF",
"DZZZZZZZZZZZZZZZZZZZt.+21*O;qfAF",
"Dcccccccccccccccccc,@scnncapywAF",
"FFFFFFFFFFFFFFFFFFe%VFFFFFFFFFFF",
"FFFFFFFFFFFFFFFFFNXlFFFFFFFFFFFF",
"FFFFFFFFFFFFFFFFF>0FFFFFFFFFFFFF",
"FFFFFFFFFFFFFFFFk%AFFFFFFFFFFFFF",
"FFFFFFFFFFFFFFFF4wFFFFFFFFFFFFFF",
"FFFFFFFFFFFFFFFV#BFFFFFFFFFFFFFF",
"FFFFFFFFFFFFFFFe3FFFFFFFFFFFFFFF",
"FFFFFFFFFFFFFFF-hFFFFFFFFFFFFFFF",
"FFFFFFFFFFFFFFM&SFFFFFFFFFFFFFFF",
"FFFFFFFFFFFFFFy7FFFFFFFFFFFFFFFF",
"FFFFFFFFFFFFFF:gFFFFFFFFFFFFFFFF",
"FFFFFFFFFFFFFM%SFFFFFFFFFFFFFFFF",
"FFFFFFFFFFFFF98FFFFFFFFFFFFFFFFF",
"FFFFFFFFFFFFS%lFFFFFFFFFFFFFFFFF",
"FFFFFFFFFFFFe:FFFFFFFFFFFFFFFFFF",
"FFFFFFFFFFFVXkFFFFFFFFFFFFFFFFFF",
"FFFFFFFFFFF46FFFFFFFFFFFFFFFFFFF",
"FFFFFFFFFFe#AFFFFFFFFFFFFFFFFFFF",
"g0tuxcbbz5 inccccccccccccccccCFF",
"lf9*+=1<o>mZZZZZZZZZZZZZZZZZZZFF",
"FFFFVjghNFFFFFFFFFFFFFFFFFFFFFFF"
};
