/* XPM */
const char *back_in_xpm[] = {
/* columns rows colors chars-per-pixel */
"32 24 66 1 ",
"  c #62AEF8",
". c #6CB6FF",
"X c #6DB6FF",
"o c #77B7F6",
"O c #7EBAF6",
"+ c #77B9FB",
"@ c #72B9FF",
"# c #76BBFF",
"$ c #7ABDFF",
"% c #7DBEFF",
"& c #83BDF7",
"* c #86BEF6",
"= c #80C0FF",
"- c #85C2FF",
"; c #88C4FF",
": c #89C4FF",
"> c #8DC6FF",
", c #92C9FF",
"< c #9ACBFB",
"1 c #99CDFF",
"2 c #9ECFFF",
"3 c #AFCEED",
"4 c #A9CFF6",
"5 c #A3D1FF",
"6 c #A5D3FF",
"7 c #ACD6FF",
"8 c #ADD6FF",
"9 c #B2D5F7",
"0 c #BEDAF6",
"q c #B3D9FF",
"w c #B6DBFF",
"e c #BDDFFF",
"r c #CDDDED",
"t c #CBE1F6",
"y c #C0E0FF",
"u c #C3E1FF",
"i c #C4E2FF",
"p c #C9E4FF",
"a c #CEE7FF",
"s c #D0E7FF",
"d c #D0E8FF",
"f c #D6EAFF",
"g c #D8EAFB",
"h c #D9ECFF",
"j c #DDEEFF",
"k c #DFEFFF",
"l c #E3E8ED",
"z c #EBECED",
"x c #EFEFEF",
"c c #F0EFED",
"v c #F1EFED",
"b c #E5EEF6",
"n c #E1EDF9",
"m c #EAF0F6",
"M c #E2F1FF",
"N c #EAF5FF",
"B c #EDF6FF",
"V c #F3F3F3",
"C c #F2F4F6",
"Z c #F7F7F6",
"A c #F9F7F6",
"S c #F3F9FF",
"D c #F7FBFF",
"F c #FAFAFA",
"G c #F9FCFF",
"H c #FEFEFE",
/* pixels */
"FVVVVVVVVVVVVVVVVVVVVVVVVVVVVnSH",
"FxxVxxxxxVxxxxxVxxxxxVxxxxxVz&jH",
"HHHHHHHHHHHHHHHHHHHHHHHHHHHHM%GH",
"HHHHHHHHHHHHHHHHHHHHHHHHHHHHw2HH",
"HHHHHHHHHHHHHHHHHHHHHHHHHHHH-aHH",
"HHHHHHHHHHHHHHHHHHHHHHHHHHHj$DHH",
"HHHHHHHHHHHHHHHHHHHHHHHHHHH56HHH",
"HHHHHHHHHHHHHHHHHHHHHHHHHHD$MHHH",
"HHHHHHHHHHHHHHHHHHHHHHHHHHp-HHHH",
"HHHHHHHHHHHHHHHHHHHHHHHHHH-yHHHH",
"HHHHHHHHHHHHHHHHHHHHHHHHHh#DHHHH",
"HHHHHHHHHHHHHHHHHHHHHHHHH,qHHHHH",
"HHHHHHHHHHHHHHHHHHHHHHHHj@SHHHHH",
"HHHHHHHHHHHHHHHHHHHHHHHH>8HHHHHH",
"HHHHHHHHHHHHHHHHHHHHHHHa@GHHHHHH",
"HHHHHHHHHHHHHHHHHHHHHHD%yHHHHHHH",
"HHHHHHHHHHHHHHHHHHHHHH5-HHHHHHHH",
"HHHHHHHHHHHHHHHHHHHHHpXNHHHHHHHH",
"HHHHHHHHHHHHHHHHHHHHj.aHHHHHHHHH",
"HHHHHHHHHHHHHHHHHHHh.eHHHHHHHHHH",
"p8w0rlxvvxxxxxzxvx9 3vxxxxxxvVHH",
"jiw<Oo*4tbCZAAZm0o+gAZZZZCZZZZHH",
"HHHHHBd7>-:166,=:iGHHHHHHHHHHHHH",
"HHHHHHHHHDMdppfNHHHHHHHHHHHHHHHH"
};
