/* XPM */
const char *bounce_out_xpm[] = {
/* columns rows colors chars-per-pixel */
"32 24 63 1 ",
"  c #5BA5EF",
". c #5DA9F5",
"X c #5BAEFF",
"o c #68AEF4",
"O c #6CB6FF",
"+ c #6DB6FF",
"@ c #71B1F0",
"# c #71B3F5",
"$ c #7DB8F3",
"% c #72B9FF",
"& c #78BBFD",
"* c #7BBDFF",
"= c #7EBFFF",
"- c #80C0FF",
"; c #83C1FF",
": c #85C2FF",
"> c #87C4FF",
", c #8AC5FF",
"< c #8DC6FF",
"1 c #95CAFF",
"2 c #99CDFF",
"3 c #9DCEFF",
"4 c #B4D2EE",
"5 c #B9D4EE",
"6 c #A3D1FF",
"7 c #A8D3FF",
"8 c #AAD5FF",
"9 c #B0D8FF",
"0 c #B3D9FF",
"q c #B7DBFF",
"w c #BCDEFF",
"e c #C7DBEF",
"r c #D3E0ED",
"t c #D7E3EF",
"y c #C7E3FF",
"u c #CBE5FF",
"i c #CDE6FF",
"p c #DEEAF6",
"a c #D3E9FE",
"s c #D9ECFF",
"d c #DDEEFF",
"f c #DFEFFF",
"g c #E9ECEE",
"h c #EFEFEF",
"j c #F1F0EF",
"k c #E5EEF7",
"l c #EDF0F3",
"z c #E3F1FF",
"x c #E4F2FF",
"c c #E5F2FF",
"v c #E9F4FF",
"b c #EEF7FF",
"n c #F3F3F3",
"m c #F4F3F3",
"M c #F6F5F3",
"N c #F1F4F6",
"B c #F4F4F4",
"V c #F1F8FF",
"C c #F5FAFF",
"Z c #FAFAFA",
"A c #F8FBFF",
"S c #F8FCFF",
"D c #FEFEFE",
/* pixels */
"ZnnnnnnnnnnlnnnnnnnnnxkjMMkupaVD",
"Zhhnhhhhhne thhnhhhhg#.4g5o&$<bD",
"DDDDDDDDDD8X2DDDDDDD0:i,>:uDSDDD",
"DDDDDDDDDD:i%uDDDDDx+fDDADDDDDDD",
"DDDDDDDDDx:Ci+xDDDb*8DDDDDDDDDDD",
"DDDDDDDDDu1DD0+iCs*2SDDDDDDDDDDD",
"DDDDDDDDD3wDDDy=:;qDDDDDDDDDDDDD",
"DDDDDDDDC=zDDDDDCSDDDDDDDDDDDDDD",
"DDDDDDDDs;SDDDDDDDDDDDDDDDDDDDDD",
"DDDDDDDD88DDDDDDDDDDDDDDDDDDDDDD",
"DDDDDDDS;fDDDDDDDDDDDDDDDDDDDDDD",
"DDDDDDDf=SDDDDDDDDDDDDDDDDDDDDDD",
"DDDDDDD86DDDDDDDDDDDDDDDDDDDDDDD",
"DDDDDDS*sDDDDDDDDDDDDDDDDDDDDDDD",
"DDDDDDi;DDDDDDDDDDDDDDDDDDDDDDDD",
"DDDDDD<wDDDDDDDDDDDDDDDDDDDDDDDD",
"DDDDDf&VDDDDDDDDDDDDDDDDDDDDDDDD",
"DDDDD17DDDDDDDDDDDDDDDDDDDDDDDDD",
"DDDDf%bDDDDDDDDDDDDDDDDDDDDDDDDD",
"DDDC;0DDDDDDDDDDDDDDDDDDDDDDDDDD",
"DDD8=SDDDDDDDDDDDDDDDDDDDDDDDDDD",
"DD0%xDDDDDDDDDDDDDDDDDDDDDDDDDDD",
"y;@rhhhhhhhhhhhhhhhhhhhhhhhhhnDD",
"faNBBnnBnBBBBBnBBBnBBBnBBBBBBBDD"
};
