/* XPM */
static const char *bounce_in_out_xpm[] = {
/* columns rows colors chars-per-pixel */
"32 24 63 1 ",
"  c #5BA9F6",
". c #5DABF9",
"X c #5DAEFF",
"o c #76B2EE",
"O c #68AFF5",
"+ c #6DB2F7",
"@ c #65B2FF",
"# c #6BB6FF",
"$ c #6CB6FF",
"% c #6FB7FF",
"& c #70B0F0",
"* c #71B8FF",
"= c #77BBFF",
"- c #7ABDFF",
"; c #7EBFFF",
": c #80C0FF",
"> c #89C4FF",
", c #8FC7FF",
"< c #9BC7F3",
"1 c #93C9FF",
"2 c #97CBFF",
"3 c #99CCFF",
"4 c #B4D2EF",
"5 c #ADCFF0",
"6 c #A1D0FF",
"7 c #A4D2FF",
"8 c #A9D4FF",
"9 c #AED7FF",
"0 c #B3D9FF",
"q c #BBDDFF",
"w c #BCDEFF",
"e c #BFDFFF",
"r c #C1E0FF",
"t c #C5E2FF",
"y c #CCE5FF",
"u c #D2E9FF",
"i c #D6EBFF",
"p c #DAEDFF",
"a c #DEEFFF",
"s c #E2E8EF",
"d c #E6EAEF",
"f c #EFEFEF",
"g c #F0EFEF",
"h c #F2F1EF",
"j c #E4EFFA",
"k c #EEF1F4",
"l c #E1F0FF",
"z c #E6F3FF",
"x c #EAF1F8",
"c c #EAF3FB",
"v c #EAF5FF",
"b c #EBF5FF",
"n c #EFF7FF",
"m c #F2F3F3",
"M c #F3F3F3",
"N c #F4F3F3",
"B c #F5F5F4",
"V c #F4F4F5",
"C c #F1F4F8",
"Z c #F1F8FF",
"A c #FAFAFA",
"S c #FAFDFF",
"D c #FEFEFE",
/* pixels */
"AMMMMMMMMMMMMMMMMMMMxMMMNxxkyyZD",
"AffMfffffMfffffMfffs 4hgd+O&;6nD",
"DDDDDDDDDDDDDDDDDDDu@$lD3,zaSDDD",
"DDDDDDDDDDDDDDDDDDD70q*::ZDDDDDD",
"DDDDDDDDDDDDDDDDDDS:aDzpSDDDDDDD",
"DDDDDDDDDDDDDDDDDDa;SDDDDDDDDDDD",
"DDDDDDDDDDDDDDDDDD87DDDDDDDDDDDD",
"DDDDDDDDDDDDDDDDDS;pDDDDDDDDDDDD",
"DDDDDDDDDDDDDDDDDy;DDDDDDDDDDDDD",
"DDDDDDDDDDDDDDDDS;rDDDDDDDDDDDDD",
"DDDDDDDDDDDDDDDD0;SDDDDDDDDDDDDD",
"DDDDDDDDDDDDDSy3$lDDDDDDDDDDDDDD",
"DDDDDDDDDDDDD6-qnDDDDDDDDDDDDDDD",
"DDDDDDDDDDDDy*nDDDDDDDDDDDDDDDDD",
"DDDDDDDDDDDS-tDDDDDDDDDDDDDDDDDD",
"DDDDDDDDDDDy:DDDDDDDDDDDDDDDDDDD",
"DDDDDDDDDDD1wDDDDDDDDDDDDDDDDDDD",
"DDDDDDDDDDn=nDDDDDDDDDDDDDDDDDDD",
"DDDDDDDDDDt,DDDDDDDDDDDDDDDDDDDD",
"DDDDDDzuZD2eDDDDDDDDDDDDDDDDDDDD",
"DDDDDq$>=a;zDDDDDDDDDDDDDDDDDDDD",
"DDviy#jD9X:DDDDDDDDDDDDDDDDDDDDD",
"w>+o.5gffo<hfffffffffgfgfffffMDD",
"auxCxVBCmCVBVMMVVVMVVVMVBBBBBBDD"
};
