/* XPM */
const char *bounce_in_xpm[] = {
/* columns rows colors chars-per-pixel */
"32 24 61 1 ",
"  c #4FA4F8",
". c #7BB4ED",
"X c #69B0F7",
"o c #66B1FB",
"O c #64B2FF",
"+ c #67B4FF",
"@ c #6EB7FF",
"# c #7DBAF7",
"$ c #72B9FF",
"% c #76BBFF",
"& c #77BBFF",
"* c #7ABDFF",
"= c #91C0EE",
"- c #9DC6EF",
"; c #80C0FF",
": c #84C2FF",
"> c #8CC6FF",
", c #8FC7FF",
"< c #93C9FF",
"1 c #95CAFF",
"2 c #99CDFF",
"3 c #9CCEFF",
"4 c #A1C7ED",
"5 c #B4D2EF",
"6 c #A4D2FF",
"7 c #A6D2FF",
"8 c #AAD5FF",
"9 c #ACD5FF",
"0 c #B0D8FF",
"q c #B2D9FF",
"w c #B9DCFF",
"e c #BEDFFF",
"r c #BFDFFF",
"t c #D9E3ED",
"y c #C4E2FF",
"u c #C7E3FF",
"i c #CFE7FF",
"p c #D5EAFF",
"a c #DEECF9",
"s c #D8EAFD",
"d c #DAEDFF",
"f c #DFEFFF",
"g c #ECEDED",
"h c #EFEFEF",
"j c #F1EFED",
"k c #E0EDFA",
"l c #E5F0FB",
"z c #E2F0FF",
"x c #E3F1FF",
"c c #E9F4FF",
"v c #ECF5FF",
"b c #F3F3F3",
"n c #F5F4F3",
"m c #F3F4F5",
"M c #F4F4F4",
"N c #F6F6F6",
"B c #F0F8FF",
"V c #F4F9FF",
"C c #FAFAFA",
"Z c #FAFDFF",
"A c #FEFEFE",
/* pixels */
"CbbbbbbbbbbbbbbbbbbbbbbbbbbnauVA",
"Chhbhhhhhbhhhhhbhhhhhbhhhhh-X6BA",
"AAAAAAAAAAAAAAAAAAAAAAAAAA8%cAAA",
"AAAAAAAAAAAAAAAAAAAAAAAAAu@cAAAA",
"AAAAAAAAAAAAAAAAAAAAAAAAB$iAAAAA",
"AAAAAAAAAAAAAAAAAAAAAAAA9,AAAAAA",
"AAAAAAAAAAAAAAAAAAAAAAAB$zAAAAAA",
"AAAAAAAAAAAAAAAAAAAAAAAq<AAAAAAA",
"AAAAAAAAAAAAAAAAAAAAAAA*pAAAAAAA",
"AAAAAAAAAAAAAAAAAAAAAAi*AAAAAAAA",
"AAAAAAAAAAAAAAAAAAAAAA1wAAAAAAAA",
"AAAAAAAAAAAAAAAAAAAAAv%vAAAAAAAA",
"AAAAAAAAAAAAAAAAAAAAAu<AAAAAAAAA",
"AAAAAAAAAAAAAAAAAAAAA1rAAAAAAAAA",
"AAAAAAAAAAAAAAAAAAAAv*cAAAAAAAAA",
"AAAAAAAAAAAAAAAAAAAAi,AAAAAAAAAA",
"AAAAAAAAAAAAABBAAAAA3wAAAAAAAAAA",
"AAAAAAAAAAAz,;;1cAAZ;zAAAAAAAAAA",
"AAAAAAAAAAd@9BB6@zAz*AAAAAAAAAAA",
"AAAAAAAAAv@rAAAAq*Zr3AAAAAAAAAAA",
"AAAAAZZAA<2AAAAAA,62uAAAAAAAAAAA",
"AZZv2:;3u$BAAAAAAc+OcAAAAAAAAAAA",
"w##o=tt= 5hhhhhhhj4.ghhhhhhhhnAA",
"fkksMMMMlMMnMMbMmmbmmMbMMMMMMMAA"
};
