/* XPM */
static const char *cubic_in_out_xpm[] = {
/* columns rows colors chars-per-pixel */
"32 24 60 1 ",
"  c #71B0EF",
". c #69B4FF",
"X c #6EB7FF",
"o c #6FB7FF",
"O c #72B1F0",
"+ c #7CBAF7",
"@ c #71B8FF",
"# c #7BBDFF",
"$ c #7CBEFF",
"% c #7FBFFF",
"& c #81B7ED",
"* c #97C3EF",
"= c #87C3FF",
"- c #88C2FD",
"; c #89C4FF",
": c #8DC6FF",
"> c #97CBFF",
", c #99CCFF",
"< c #9ECFFF",
"1 c #BDD5ED",
"2 c #A2D1FF",
"3 c #A7D3FF",
"4 c #AAD5FF",
"5 c #ADD6FF",
"6 c #AFD8FF",
"7 c #B2D9FF",
"8 c #B5DAFF",
"9 c #BEDFFF",
"0 c #D7E3EF",
"q c #C1E0FF",
"w c #C6E3FF",
"e c #CCE6FF",
"r c #CEE7FF",
"t c #CFE7FF",
"y c #D1E8FF",
"u c #DFECF9",
"i c #DFEEFE",
"p c #DEEEFF",
"a c #DFF0FF",
"s c #EBECED",
"d c #EFEFEF",
"f c #F2F0EF",
"g c #EEF0F3",
"h c #EBF0F6",
"j c #E1F0FF",
"k c #E4F2FF",
"l c #EBF5FF",
"z c #EEF7FF",
"x c #F3F3F3",
"c c #F4F4F3",
"v c #F4F4F4",
"b c #F5F5F4",
"n c #F8F6F4",
"m c #F0F7FF",
"M c #F1F8FF",
"N c #F5FAFF",
"B c #FAFAFA",
"V c #F8FBFF",
"C c #F9FCFF",
"Z c #FEFEFE",
/* pixels */
"BxxxxxxxxxxxxxxxxxxxcxccguywqwNZ",
"Bddxdddddxdddddxdddddf0* +>358MZ",
"ZZZZZZZZZZZZZZZZZZZZC5X2jCZZZZZZ",
"ZZZZZZZZZZZZZZZZZZZN:%kZZZZZZZZZ",
"ZZZZZZZZZZZZZZZZZZC;:CZZZZZZZZZZ",
"ZZZZZZZZZZZZZZZZZZ,=CZZZZZZZZZZZ",
"ZZZZZZZZZZZZZZZZZw@MZZZZZZZZZZZZ",
"ZZZZZZZZZZZZZZZZmXtZZZZZZZZZZZZZ",
"ZZZZZZZZZZZZZZZZ2>ZZZZZZZZZZZZZZ",
"ZZZZZZZZZZZZZZZkXlZZZZZZZZZZZZZZ",
"ZZZZZZZZZZZZZZZ,2ZZZZZZZZZZZZZZZ",
"ZZZZZZZZZZZZZZk@zZZZZZZZZZZZZZZZ",
"ZZZZZZZZZZZZZZ3<ZZZZZZZZZZZZZZZZ",
"ZZZZZZZZZZZZZz@jZZZZZZZZZZZZZZZZ",
"ZZZZZZZZZZZZZ2,ZZZZZZZZZZZZZZZZZ",
"ZZZZZZZZZZZZkXkZZZZZZZZZZZZZZZZZ",
"ZZZZZZZZZZZZ=4ZZZZZZZZZZZZZZZZZZ",
"ZZZZZZZZZZZ7%CZZZZZZZZZZZZZZZZZZ",
"ZZZZZZZZZZt.pZZZZZZZZZZZZZZZZZZZ",
"ZZZZZZZZZt.tZZZZZZZZZZZZZZZZZZZZ",
"ZZZZZZZV7.tZZZZZZZZZZZZZZZZZZZZZ",
"ZZZZZz9%=aZZZZZZZZZZZZZZZZZZZZZZ",
"e33,- +1sddddddddddddddddddddxZZ",
"petypdnvvvvxbxxbbbxbbbxbbbbbbbZZ"
};
