/* XPM */
const char *cubic_in_xpm[] = {
/* columns rows colors chars-per-pixel */
"32 24 56 1 ",
"  c #75B2EE",
". c #6AB5FF",
"X c #6EB7FF",
"o c #6FB7FF",
"O c #79B8F7",
"+ c #73B9FF",
"@ c #7ABDFF",
"# c #7CBEFF",
"$ c #7EBFFF",
"% c #81B7ED",
"& c #80BBF6",
"* c #9AC4ED",
"= c #81C0FF",
"- c #84C2FF",
"; c #87C4FF",
": c #8BC5FF",
"> c #8EC7FF",
", c #92C8FF",
"< c #99CCFF",
"1 c #9DCEFF",
"2 c #A2D1FF",
"3 c #A5D2FF",
"4 c #A9D4FF",
"5 c #AFD7FF",
"6 c #B0D8FF",
"7 c #BFDFFF",
"8 c #C2D8ED",
"9 c #C2E0FF",
"0 c #C5E2FF",
"q c #C6E3FF",
"w c #CAE5FF",
"e c #D2E8FF",
"r c #D4EAFF",
"t c #D6EBFF",
"y c #DEEEFF",
"u c #DFEFFF",
"i c #E7EBEF",
"p c #EFEFEF",
"a c #E0ECF9",
"s c #EDF1F4",
"d c #E1F0FF",
"f c #E6F3FF",
"g c #E7F3FF",
"h c #EBF5FF",
"j c #EDF6FF",
"k c #F1F1F1",
"l c #F3F3F3",
"z c #F4F3F3",
"x c #F4F4F4",
"c c #F5F5F4",
"v c #F9F7F4",
"b c #F3F9FF",
"n c #F5FAFF",
"m c #FAFAFA",
"M c #FBFDFF",
"N c #FEFEFE",
/* pixels */
"mllllllllllllllllllllllllllllubm",
"mpplppppplppppplppppplpppppliOdN",
"NNNNNNNNNNNNNNNNNNNNNNNNNNNN0-NN",
"NNNNNNNNNNNNNNNNNNNNNNNNNNNM#wNN",
"NNNNNNNNNNNNNNNNNNNNNNNNNNN0#NNN",
"NNNNNNNNNNNNNNNNNNNNNNNNNNM@wNNN",
"NNNNNNNNNNNNNNNNNNNNNNNNNN9=NNNN",
"NNNNNNNNNNNNNNNNNNNNNNNNNn+eNNNN",
"NNNNNNNNNNNNNNNNNNNNNNNNN3>NNNNN",
"NNNNNNNNNNNNNNNNNNNNNNNNuXhNNNNN",
"NNNNNNNNNNNNNNNNNNNNNNNM=5NNNNNN",
"NNNNNNNNNNNNNNNNNNNNNNN5=MNNNNNN",
"NNNNNNNNNNNNNNNNNNNNNNt.dNNNNNNN",
"NNNNNNNNNNNNNNNNNNNNNj+9NNNNNNNN",
"NNNNNNNNNNNNNNNNNNNNn=2NNNNNNNNN",
"NNNNNNNNNNNNNNNNNNNM:>MNNNNNNNNN",
"NNNNNNNNNNNNNNNNNNn,:nNNNNNNNNNN",
"NNNNNNNNNNNNNNNNNj#>nNNNNNNNNNNN",
"NNNNNNNNNNNNNNNNeo2NNNNNNNNNNNNN",
"NNNNNNNNNNNNNNh<o0NNNNNNNNNNNNNN",
"NNNNNNNNNNNNa2+1jNNNNNNNNNNNNNNN",
"NNNNNNNMjt5;@3fNNNNNNNNNNNNNNNNN",
"w4432<,O %*8ipppppppppppppppplNN",
"uwwwttafscvccclccczccclcccccccNN"
};
