/* XPM */
static const char *elastic_out_xpm[] = {
/* columns rows colors chars-per-pixel */
"32 24 64 1 ",
"  c #55AAFF",
". c #6FB1F3",
"X c #6BB0F4",
"o c #6AB1F9",
"O c #7ABBFC",
"+ c #79BCFF",
"@ c #81B9F1",
"# c #8BBFF2",
"$ c #80BFFF",
"% c #83C1FF",
"& c #8AC4FF",
"* c #8DC6FF",
"= c #93C5F6",
"- c #93C6F9",
"; c #97C9FB",
": c #91C8FF",
"> c #9ACCFF",
", c #9DCEFF",
"< c #9FCFFF",
"1 c #A4CCF4",
"2 c #A7CFF6",
"3 c #ACD0F5",
"4 c #A2D0FF",
"5 c #A8D4FF",
"6 c #AAD5FF",
"7 c #AED6FF",
"8 c #B0D8FF",
"9 c #B6DBFF",
"0 c #BADDFF",
"q c #BFDFFF",
"w c #C5DAF0",
"e c #C2DCF5",
"r c #C2E0FF",
"t c #C6E3FF",
"y c #C8E4FF",
"u c #CCE6FF",
"i c #DAE6F1",
"p c #D5E8FB",
"a c #D2E8FE",
"s c #D3E9FF",
"d c #D6EBFF",
"f c #DBEDFF",
"g c #DDEEFF",
"h c #EDEDED",
"j c #F0EFED",
"k c #E3EBF3",
"l c #E0EAF4",
"z c #E0F0FF",
"x c #E5F1FE",
"c c #EBF5FF",
"v c #EEF7FF",
"b c #F1F1F1",
"n c #F2F1F1",
"m c #F2F2F1",
"M c #F4F3F1",
"N c #F5F3F1",
"B c #F0F3F6",
"V c #F4F4F4",
"C c #F0F8FF",
"Z c #F4FAFF",
"A c #F9F9F9",
"S c #F8FBFF",
"D c #F9FCFF",
"F c #FFFFFF",
/* pixels */
"FFFDuvFFFFFFFFFFFFFFFFFFFFFFFFFF",
"FFFr :FFFFFFFFFFFFFFFFFFFFFFFFFF",
"FFF&r+gFFFFFFFFFFFFFFFFFFFFFFFFF",
"FFC$Z64FFFFFFFFFFFFFFFFFFFFFFFFF",
"FFf:Fg+DFFFFFFFFFFFFFFFFFFFFFFFF",
"FFt4FF%dFFFFcgvFFFFFFFFFFFFFFFFF",
"AN13NN1-mmm,X@.*qpae777790q0qrCF",
"AN=eNmloim#Okmkr4;>50tyr0q000rCF",
"FF*zFFF6+&%CFFFFFFFFFFFFFFFFFFFF",
"FZ&vFFFDr0ZFFFFFFFFFFFFFFFFFFFFF",
"Fc&DFFFFFFFFFFFFFFFFFFFFFFFFFFFF",
"Fg:FFFFFFFFFFFFFFFFFFFFFFFFFFFFF",
"Fu,FFFFFFFFFFFFFFFFFFFFFFFFFFFFF",
"F07FFFFFFFFFFFFFFFFFFFFFFFFFFFFF",
"F6eFFFFFFFFFFFFFFFFFFFFFFFFFFFFF",
"F>sFFFFFFFFFFFFFFFFFFFFFFFFFFFFF",
"F*zFFFFFFFFFFFFFFFFFFFFFFFFFFFFF",
"Z&CFFFFFFFFFFFFFFFFFFFFFFFFFFFFF",
"c&ZFFFFFFFFFFFFFFFFFFFFFFFFFFFFF",
"f:FFFFFFFFFFFFFFFFFFFFFFFFFFFFFF",
"r,FFFFFFFFFFFFFFFFFFFFFFFFFFFFFF",
"48FFFFFFFFFFFFFFFFFFFFFFFFFFFFFF",
"*wjhhhhhhhhhhhhhhhhhhhhhhhhhhmFF",
"xBVVVVVVVVVVVVVVNVVVVVVVVVVVNVFF"
};
