/* XPM */
const char *elastic_in_xpm[] = {
/* columns rows colors chars-per-pixel */
"32 24 63 1 ",
"  c #61ACF7",
". c #61B0FF",
"X c #6FB4F9",
"o c #6DB7FF",
"O c #75B4F3",
"+ c #78B6F3",
"@ c #77BBFF",
"# c #78B9FA",
"$ c #7DBBF9",
"% c #81BDF9",
"& c #88C0F7",
"* c #8EC2F6",
"= c #84C2FF",
"- c #88C3FF",
"; c #8BC5FF",
": c #9EC8F3",
"> c #93C7FB",
", c #91C8FF",
"< c #95CAFF",
"1 c #9BCDFF",
"2 c #A3D1FF",
"3 c #A4D2FF",
"4 c #A6D3FF",
"5 c #AAD5FF",
"6 c #B3D6F9",
"7 c #B3D9FF",
"8 c #B5DAFF",
"9 c #BBDDFF",
"0 c #BEDFFF",
"q c #CBDDF0",
"w c #CEE0F1",
"e c #CBE1F7",
"r c #C0E0FF",
"t c #C2E1FF",
"y c #C6E3FF",
"u c #C7E3FF",
"i c #C8E4FF",
"p c #CDE6FF",
"a c #D7E8F8",
"s c #D1E8FF",
"d c #D7EBFF",
"f c #D8EBFF",
"g c #D9ECFF",
"h c #DCECFC",
"j c #DDEEFF",
"k c #EFEFEF",
"l c #E3ECF5",
"z c #E8ECF0",
"x c #EBEFF3",
"c c #ECEEF0",
"v c #E5F2FF",
"b c #E8F3FF",
"n c #ECF6FF",
"m c #F0F0F0",
"M c #F3F3F3",
"N c #F4F3F3",
"B c #F5F4F3",
"V c #F8F4F0",
"C c #F2F8FF",
"Z c #F7FBFF",
"A c #FAFAFA",
"S c #FBFDFF",
"D c #FEFEFE",
/* pixels */
"AMMMMMMMMMMMMMMMMMMMMMMMMMMMMlCD",
"AkkMkkkkkMkkkkkMkkkkkMkkkkkMk*gD",
"DDDDDDDDDDDDDDDDDDDDDDDDDDDDZ=nD",
"DDDDDDDDDDDDDDDDDDDDDDDDDDDDb-SD",
"DDDDDDDDDDDDDDDDDDDDDDDDDDDDd<DD",
"DDDDDDDDDDDDDDDDDDDDDDDDDDDDy3DD",
"DDDDDDDDDDDDDDDDDDDDDDDDDDDD88DD",
"DDDDDDDDDDDDDDDDDDDDDDDDDDDD2yDD",
"DDDDDDDDDDDDDDDDDDDDDDDDDDDD<gDD",
"DDDDDDDDDDDDDDDDDDDDDDDDDDDD;vDD",
"DDDDDDDDDDDDDDDDDDDDDDDDDDDZ;CDD",
"DDDDDDDDDDDDDDDDDDDDDDDDDDDb=DDD",
"DDDDDDDDDDDDDDDDDDDDDDDDDDDg<DDD",
"DDDDDDDDDDDDDDDDDDDDDDDDDDDy3DDD",
"DDDDDDDDDDDDDDDDDDDDd3gDDDD78DDD",
"DDDDDDDDDDDDDDDDDDDto2ovDDD2iDDD",
"s8888790t951>,3ezc6 qB:>mmM&wBDD",
"gtttt09888tshd8$O+#aBBlXhBz%lBDD",
"DDDDDDDDDDDDDDDDbbDDDDD<qDv-DDDD",
"DDDDDDDDDDDDDDDDDDDDDDDy;Df,DDDD",
"DDDDDDDDDDDDDDDDDDDDDDDC@b82DDDD",
"DDDDDDDDDDDDDDDDDDDDDDDD15;pDDDD",
"DDDDDDDDDDDDDDDDDDDDDDDDv.@ZDDDD",
"DDDDDDDDDDDDDDDDDDDDDDDDDjvDDDDD"
};
