/* XPM */
const char *elastic_in_out_xpm[] = {
/* columns rows colors chars-per-pixel */
"32 24 61 1 ",
"  c #4FA8FF",
". c #66ADF4",
"X c #6CAFF2",
"o c #6EB5FB",
"O c #75B7F9",
"+ c #7ABDFF",
"@ c #86BEF7",
"# c #80BCF8",
"$ c #81BDF9",
"% c #86BFF8",
"& c #8CC0F5",
"* c #85C2FF",
"= c #8CC4FA",
"- c #89C4FF",
"; c #8BC5FF",
": c #97CAFD",
"> c #94CAFF",
", c #9ACBFB",
"< c #99CBFC",
"1 c #9BCDFF",
"2 c #9CCEFF",
"3 c #A1CCF8",
"4 c #A0D0FF",
"5 c #A3D1FF",
"6 c #A7D3FF",
"7 c #AED7FF",
"8 c #B4D5F6",
"9 c #BDD9F4",
"0 c #B0D8FF",
"q c #B6DAFF",
"w c #BADDFF",
"e c #BCDCFC",
"r c #BFDFFF",
"t c #C6DFF7",
"y c #C9DEF3",
"u c #C1DDF8",
"i c #C1E0FF",
"p c #C5E2FF",
"a c #CBE5FF",
"s c #D2E2F1",
"d c #D3E9FF",
"f c #D8EBFF",
"g c #DEEEFF",
"h c #EEEEEE",
"j c #F0EFEE",
"k c #E5ECF4",
"l c #EFF0F1",
"z c #EDF1F4",
"x c #E1F0FF",
"c c #E6F3FF",
"v c #E8F0F8",
"b c #EEF6FF",
"n c #F3F3F3",
"m c #F4F4F4",
"M c #F6F6F6",
"N c #F8F6F4",
"B c #F3F9FF",
"V c #F4FAFF",
"C c #FAFAFA",
"Z c #FBFDFF",
"A c #FFFFFF",
/* pixels */
"AAAAAAAAAAAAAAAAbfAAAAAAAAAAAAAA",
"AAAAAAAAAAAAAAAA3 xAAAAAAAAAAAAA",
"AAAAAAAAAAAAAAAZ-*6AAAAAAAAAAAAA",
"Cnnnnnnnnnnnnnnk$yOze#>ppwwiipVA",
"Mnhhnhhnnhhnjhns@l$Xotw66qqqqwBA",
"AAAAAAAAAAAAAAAa2Ac7cAAAAAAAAAAA",
"AAAAAAAAAAAAAAAw7AAAAAAAAAAAAAAA",
"AAAAAAAAAAAAAAA6iAAAAAAAAAAAAAAA",
"AAAAAAAAAAAAAAA2dAAAAAAAAAAAAAAA",
"AAAAAAAAAAAAAAA-xAAAAAAAAAAAAAAA",
"AAAAAAAAAAAAAAB*BAAAAAAAAAAAAAAA",
"AAAAAAAAAAAAAAx-AAAAAAAAAAAAAAAA",
"AAAAAAAAAAAAAAa1AAAAAAAAAAAAAAAA",
"AAAAAAAAAAAAAAq0AAAAAAAAAAAAAAAA",
"AAAAAAAAAAAAAA5pAAAAAAAAAAAAAAAA",
"AAAAAAAAAAAAAA>fAAAAAAAAAAAAAAAA",
"AAAAAAAAAAAAAZ-cAAAAAAAAAAAAAAAA",
"AAAAAAAAAAAAAB-BAAAAAAAAAAAAAAAA",
"AAAAAAAAAZrqZc-AAAAAAAAAAAAAAAAA",
"a7777655u,X.9y&jhhhhhhhhhhhhhnAA",
"gaaiipdw=<vu@83NnMnMnmmmMnMnnMAA",
"AAAAAAAAAAAB+$iAAAAAAAAAAAAAAAAA",
"AAAAAAAAAAAA6 cAAAAAAAAAAAAAAAAA",
"AAAAAAAAAAAABgAAAAAAAAAAAAAAAAAA"
};
