/* XPM */
const char *expo_in_out_xpm[] = {
/* columns rows colors chars-per-pixel */
"32 24 55 1 ",
"  c #73B0EE",
". c #74B1EF",
"X c #68B4FF",
"o c #6DB7FF",
"O c #78B5F2",
"+ c #77BBFF",
"@ c #7ABDFF",
"# c #7CBEFF",
"$ c #84B9ED",
"% c #81BDF8",
"& c #9AC5EF",
"* c #81C0FF",
"= c #87C3FF",
"- c #89C4FF",
"; c #8FC7FF",
": c #92C8FF",
"> c #94CAFF",
", c #9ACDFF",
"< c #9CCEFF",
"1 c #9DCFFF",
"2 c #A1D0FF",
"3 c #A2D1FF",
"4 c #A4D1FF",
"5 c #A9D4FF",
"6 c #ADD6FF",
"7 c #B5DAFF",
"8 c #B9DCFF",
"9 c #BBDDFF",
"0 c #BEDEFF",
"q c #DBE5EF",
"w c #C1E0FF",
"e c #C6E3FF",
"r c #C9E4FF",
"t c #CCE5FF",
"y c #D0E8FF",
"u c #D1E8FF",
"i c #D4EAFF",
"p c #D7EBFF",
"a c #DEEEFF",
"s c #EDEDED",
"d c #EFEFEF",
"f c #F1F0EF",
"g c #E2ECF5",
"h c #E5F0FB",
"j c #E1F0FF",
"k c #E3F1FF",
"l c #EBF5FF",
"z c #F3F3F3",
"x c #F7F5F3",
"c c #F5F5F4",
"v c #F1F8FF",
"b c #F4FAFF",
"n c #FAFAFA",
"m c #F9FCFF",
"M c #FEFEFE",
/* pixels */
"nzzzzzzzzzzzzzzzzzzzxzgpprrewebM",
"nddzdddddzdddddzddfq&.O;<35567bM",
"MMMMMMMMMMMMMMMMMMro<amMMMMMMMMM",
"MMMMMMMMMMMMMMMMMpXuMMMMMMMMMMMM",
"MMMMMMMMMMMMMMMMb@wMMMMMMMMMMMMM",
"MMMMMMMMMMMMMMMM0=MMMMMMMMMMMMMM",
"MMMMMMMMMMMMMMMM=rMMMMMMMMMMMMMM",
"MMMMMMMMMMMMMMMk@bMMMMMMMMMMMMMM",
"MMMMMMMMMMMMMMM8<MMMMMMMMMMMMMMM",
"MMMMMMMMMMMMMMM:eMMMMMMMMMMMMMMM",
"MMMMMMMMMMMMMMb*lMMMMMMMMMMMMMMM",
"MMMMMMMMMMMMMMk=MMMMMMMMMMMMMMMM",
"MMMMMMMMMMMMMMr<MMMMMMMMMMMMMMMM",
"MMMMMMMMMMMMMM57MMMMMMMMMMMMMMMM",
"MMMMMMMMMMMMMM-pMMMMMMMMMMMMMMMM",
"MMMMMMMMMMMMMl#bMMMMMMMMMMMMMMMM",
"MMMMMMMMMMMMM8>MMMMMMMMMMMMMMMMM",
"MMMMMMMMMMMMM=tMMMMMMMMMMMMMMMMM",
"MMMMMMMMMMMMp+mMMMMMMMMMMMMMMMMM",
"MMMMMMMMMMMb@0MMMMMMMMMMMMMMMMMM",
"MMMMMMMMMMb;;bMMMMMMMMMMMMMMMMMM",
"MMMMMmMml0+:bMMMMMMMMMMMMMMMMMMM",
"r5443<:% $8ddddddddddddddddddzMM",
"krruupkhzxxfczzccczccczcccccccMM"
};
