/* XPM */
const char *linear_in_out_xpm[] = {
/* columns rows colors chars-per-pixel */
"32 24 53 1 ",
"  c #6BAFF3",
". c #6AB5FF",
"X c #6DB6FF",
"o c #73B7FA",
"O c #70B8FF",
"+ c #72B9FF",
"@ c #75BAFF",
"# c #79BCFF",
"$ c #7EBFFF",
"% c #95C2EF",
"& c #80C0FF",
"* c #87C3FF",
"= c #88C4FF",
"- c #8EC7FF",
"; c #93C9FF",
": c #95CAFF",
"> c #9BCDFF",
", c #9CCEFF",
"< c #A0D0FF",
"1 c #ADD6FF",
"2 c #B0D8FF",
"3 c #B4DAFF",
"4 c #BADDFF",
"5 c #BDDEFF",
"6 c #CBDCED",
"7 c #C2E1FF",
"8 c #C6E3FF",
"9 c #C9E4FF",
"0 c #D7E9FB",
"q c #D3E9FF",
"w c #D6EAFF",
"e c #DAEDFF",
"r c #DFEFFF",
"t c #EAECEF",
"y c #EFEFEF",
"u c #F0EFED",
"i c #F1F0EF",
"p c #E0F0FF",
"a c #E5F2FF",
"s c #E7F3FF",
"d c #EAF1F8",
"f c #EBF5FF",
"g c #EDF6FF",
"h c #EFF7FF",
"j c #F3F3F3",
"k c #F4F4F3",
"l c #F4F4F4",
"z c #F0F8FF",
"x c #F3F9FF",
"c c #F5FAFF",
"v c #FAFAFA",
"b c #FAFDFF",
"n c #FEFEFE",
/* pixels */
"vjjjjjjjjjjjjjjjjjjjjjjjjjjjk0xn",
"vyyjyyyyyjyyyyyjyyyyyjyyyyit%ohn",
"nnnnnnnnnnnnnnnnnnnnnnnnnna&*fnn",
"nnnnnnnnnnnnnnnnnnnnnnnnn9.1bnnn",
"nnnnnnnnnnnnnnnnnnnnnnnb<Xqnnnnn",
"nnnnnnnnnnnnnnnnnnnnnna$=fnnnnnn",
"nnnnnnnnnnnnnnnnnnnnn8.1bnnnnnnn",
"nnnnnnnnnnnnnnnnnnnb<+qnnnnnnnnn",
"nnnnnnnnnnnnnnnnnnp$*hnnnnnnnnnn",
"nnnnnnnnnnnnnnnnn8X1nnnnnnnnnnnn",
"nnnnnnnnnnnnnnnc,+wnnnnnnnnnnnnn",
"nnnnnnnnnnnnnnp#-hnnnnnnnnnnnnnn",
"nnnnnnnnnnnnn7.3bnnnnnnnnnnnnnnn",
"nnnnnnnnnnnc>+wnnnnnnnnnnnnnnnnn",
"nnnnnnnnnnp#-hnnnnnnnnnnnnnnnnnn",
"nnnnnnnnn7.3nnnnnnnnnnnnnnnnnnnn",
"nnnnnnnc>+ennnnnnnnnnnnnnnnnnnnn",
"nnnnnnr+-xnnnnnnnnnnnnnnnnnnnnnn",
"nnnnn5.4bnnnnnnnnnnnnnnnnnnnnnnn",
"nnnx:@ennnnnnnnnnnnnnnnnnnnnnnnn",
"nnr@;xnnnnnnnnnnnnnnnnnnnnnnnnnn",
"n5.4nnnnnnnnnnnnnnnnnnnnnnnnnnnn",
"1 6uyyyyyyyyyyyyyyyyyyyyyyyyyjnn",
"rdllljjljllllljllljllljlllllllnn"
};
