/* XPM */
static const char *quad_out_xpm[] = {
/* columns rows colors chars-per-pixel */
"32 24 56 1 ",
"  c #72B1EF",
". c #69B4FF",
"X c #6DB6FF",
"o c #6FB7FF",
"O c #72B9FF",
"+ c #76BBFF",
"@ c #77BCFF",
"# c #78BCFF",
"$ c #7CBEFF",
"% c #86BAEF",
"& c #81BDF8",
"* c #80C0FF",
"= c #85C2FF",
"- c #8AC5FF",
"; c #95C3F1",
": c #93CAFF",
"> c #94CAFF",
", c #97CBFF",
"< c #99CCFF",
"1 c #AECFEF",
"2 c #A3D1FF",
"3 c #A9D4FF",
"4 c #B3D9FF",
"5 c #B6DBFF",
"6 c #B8DCFF",
"7 c #DBE5EF",
"8 c #C1E0FF",
"9 c #C5E2FF",
"0 c #C6E2FF",
"q c #CBE5FF",
"w c #CCE6FF",
"e c #D2E9FF",
"r c #D7EBFF",
"t c #DFEFFF",
"y c #EDEDED",
"u c #EFEFEF",
"i c #F1F0EF",
"p c #EBEFF3",
"a c #EFF3F6",
"s c #E2F0FE",
"d c #E3F1FF",
"f c #E4F2FF",
"g c #E9F4FF",
"h c #ECF6FF",
"j c #EFF7FF",
"k c #F3F3F3",
"l c #F4F3F3",
"z c #F7F5F3",
"x c #F4F4F4",
"c c #F5F5F4",
"v c #F3F9FF",
"b c #F4FAFF",
"n c #F7FBFF",
"m c #FAFAFA",
"M c #FCFEFF",
"N c #FEFEFE",
/* pixels */
"mkkkkkkkkkkkkkkkkkkkkkllzase99nN",
"muukuuuuukuuuuukuuuuii71% &>24vN",
"NNNNNNNNNNNNNNNNNNNNr:@,9gNNNNNN",
"NNNNNNNNNNNNNNNNNNr=@5jNNNNNNNNN",
"NNNNNNNNNNNNNNNNj<O5nNNNNNNNNNNN",
"NNNNNNNNNNNNNNNwO<hNNNNNNNNNNNNN",
"NNNNNNNNNNNNNN3XqNNNNNNNNNNNNNNN",
"NNNNNNNNNNNNv-$hNNNNNNNNNNNNNNNN",
"NNNNNNNNNNNh@<nNNNNNNNNNNNNNNNNN",
"NNNNNNNNNNsO3NNNNNNNNNNNNNNNNNNN",
"NNNNNNNNNs.4NNNNNNNNNNNNNNNNNNNN",
"NNNNNNNNfX5NNNNNNNNNNNNNNNNNNNNN",
"NNNNNNNhO5NNNNNNNNNNNNNNNNNNNNNN",
"NNNNNNv$2NNNNNNNNNNNNNNNNNNNNNNN",
"NNNNNN-:MNNNNNNNNNNNNNNNNNNNNNNN",
"NNNNN2*nNNNNNNNNNNNNNNNNNNNNNNNN",
"NNNN8XjNNNNNNNNNNNNNNNNNNNNNNNNN",
"NNNt.rNNNNNNNNNNNNNNNNNNNNNNNNNN",
"NNv+5NNNNNNNNNNNNNNNNNNNNNNNNNNN",
"NN<:NNNNNNNNNNNNNNNNNNNNNNNNNNNN",
"N9OhNNNNNNNNNNNNNNNNNNNNNNNNNNNN",
"hXeNNNNNNNNNNNNNNNNNNNNNNNNNNNNN",
">;uuuuuuuiuuuuuuuuuuuuuuuuiuulNN",
"skllxxkkkxxxxkkxlxkxxxkxxxxxxlNN"
};
