/* XPM */
const char *quart_in_xpm[] = {
/* columns rows colors chars-per-pixel */
"32 24 51 1 ",
"  c #76B2ED",
". c #7DB5ED",
"X c #6FB7FF",
"o c #70B8FF",
"O c #76BBFF",
"+ c #77BBFF",
"@ c #7DBEFF",
"# c #80BBF5",
"$ c #97C2ED",
"% c #81C0FF",
"& c #86C3FF",
"* c #8AC5FF",
"= c #8DC6FF",
"- c #90C8FF",
"; c #9ACCFF",
": c #9DCEFF",
"> c #BED6ED",
", c #A0CFFF",
"< c #A1D0FF",
"1 c #A5D2FF",
"2 c #A9D5FF",
"3 c #ABD5FF",
"4 c #B5DAFF",
"5 c #BEDFFF",
"6 c #C9E4FF",
"7 c #CDE6FF",
"8 c #D1E8FF",
"9 c #D7ECFF",
"0 c #DAEDFF",
"q c #DEEFFF",
"w c #E4E9ED",
"e c #ECEDEE",
"r c #EFEFEF",
"t c #F1EFED",
"y c #E1EDF9",
"u c #ECF0F4",
"i c #E2F1FF",
"p c #E3F1FF",
"a c #E6F3FF",
"s c #EAF5FF",
"d c #EDF6FF",
"f c #F3F3F3",
"g c #F4F3F3",
"h c #F5F5F4",
"j c #F9F7F4",
"k c #F0F8FF",
"l c #F3F9FF",
"z c #F4FAFF",
"x c #FAFAFA",
"c c #F8FCFF",
"v c #FEFEFE",
/* pixels */
"xffffffffffffffffffffffffffffyzv",
"xrrfrrrrrfrrrrrfrrrrrfrrrrrfr.qv",
"vvvvvvvvvvvvvvvvvvvvvvvvvvvvq@cv",
"vvvvvvvvvvvvvvvvvvvvvvvvvvvv31vv",
"vvvvvvvvvvvvvvvvvvvvvvvvvvvc@0vv",
"vvvvvvvvvvvvvvvvvvvvvvvvvvv7%vvv",
"vvvvvvvvvvvvvvvvvvvvvvvvvvv*5vvv",
"vvvvvvvvvvvvvvvvvvvvvvvvvviOzvvv",
"vvvvvvvvvvvvvvvvvvvvvvvvvv:1vvvv",
"vvvvvvvvvvvvvvvvvvvvvvvvvaosvvvv",
"vvvvvvvvvvvvvvvvvvvvvvvvv:<vvvvv",
"vvvvvvvvvvvvvvvvvvvvvvvviosvvvvv",
"vvvvvvvvvvvvvvvvvvvvvvvv=3vvvvvv",
"vvvvvvvvvvvvvvvvvvvvvvv6Ozvvvvvv",
"vvvvvvvvvvvvvvvvvvvvvvdX7vvvvvvv",
"vvvvvvvvvvvvvvvvvvvvvc&<vvvvvvvv",
"vvvvvvvvvvvvvvvvvvvvv<%cvvvvvvvv",
"vvvvvvvvvvvvvvvvvvvv<Odvvvvvvvvv",
"vvvvvvvvvvvvvvvvvvc;Osvvvvvvvvvv",
"vvvvvvvvvvvvvvvvvq@*zvvvvvvvvvvv",
"vvvvvvvvvvvvvvvq;X4cvvvvvvvvvvvv",
"vvvvvvvvvvck04*@3dvvvvvvvvvvvvvv",
"622232<<;-. .$>wrrrrrrrrrrrrrgvv",
"q66666789iauhjhhhhghhhghhhhhhhvv"
};
