/* XPM */
static const char *quint_in_out_xpm[] = {
/* columns rows colors chars-per-pixel */
"32 24 53 1 ",
"  c #6FAFEE",
". c #77B3EE",
"X c #6AB5FF",
"o c #74B4F3",
"O c #71B9FF",
"+ c #76BBFF",
"@ c #78BCFF",
"# c #7FBFFF",
"$ c #82BEFA",
"% c #98C3ED",
"& c #82C1FF",
"* c #86C3FF",
"= c #87C3FF",
"- c #8EC7FF",
"; c #91C8FE",
": c #94C9FF",
"> c #97CCFF",
", c #9BCDFF",
"< c #9DCFFF",
"1 c #B9D4EF",
"2 c #A1D0FF",
"3 c #A6D3FF",
"4 c #A9D4FF",
"5 c #AED7FF",
"6 c #B3D9FF",
"7 c #B5DAFF",
"8 c #B8DCFF",
"9 c #BFDFFF",
"0 c #DEE6ED",
"q c #C0E0FF",
"w c #C1E0FF",
"e c #C4E2FF",
"r c #CAE5FF",
"t c #CCE6FF",
"y c #CFE7FF",
"u c #D6EBFF",
"i c #DAECFF",
"p c #DEEEFF",
"a c #EFEFEF",
"s c #E3ECF6",
"d c #EFF2F5",
"f c #E3F1FF",
"g c #E4F0FC",
"h c #EBF5FF",
"j c #F3F3F3",
"k c #F4F4F4",
"l c #F8F6F4",
"z c #F0F8FF",
"x c #F6FBFF",
"c c #FAFAFA",
"v c #F8FBFF",
"b c #F9FCFF",
"n c #FEFEFE",
/* pixels */
"cjjjjjjjjjjjjjjjjjjjkjsurwwwwexn",
"caajaaaaajaaaaajaaaa1.o;245657zn",
"nnnnnnnnnnnnnnnnnnv<+rxnnnnnnnnn",
"nnnnnnnnnnnnnnnnnn,&znnnnnnnnnnn",
"nnnnnnnnnnnnnnnnnrOznnnnnnnnnnnn",
"nnnnnnnnnnnnnnnnx+rnnnnnnnnnnnnn",
"nnnnnnnnnnnnnnnn9=nnnnnnnnnnnnnn",
"nnnnnnnnnnnnnnnn&tnnnnnnnnnnnnnn",
"nnnnnnnnnnnnnnnp@bnnnnnnnnnnnnnn",
"nnnnnnnnnnnnnnn43nnnnnnnnnnnnnnn",
"nnnnnnnnnnnnnnn&innnnnnnnnnnnnnn",
"nnnnnnnnnnnnnnf#bnnnnnnnnnnnnnnn",
"nnnnnnnnnnnnnn9,nnnnnnnnnnnnnnnn",
"nnnnnnnnnnnnnn:ennnnnnnnnnnnnnnn",
"nnnnnnnnnnnnnz@hnnnnnnnnnnnnnnnn",
"nnnnnnnnnnnnnw-nnnnnnnnnnnnnnnnn",
"nnnnnnnnnnnnn=rnnnnnnnnnnnnnnnnn",
"nnnnnnnnnnnnu+xnnnnnnnnnnnnnnnnn",
"nnnnnnnnnnnb&7nnnnnnnnnnnnnnnnnn",
"nnnnnnnnnnn6$bnnnnnnnnnnnnnnnnnn",
"nnnnnnnnnnqXpnnnnnnnnnnnnnnnnnnn",
"nnnnnnnbf>Oinnnnnnnnnnnnnnnnnnnn",
"r44432>$ %0aaaaaaaaaaaaaaaaaajnn",
"prrrrtufdlkkkkjkkkjkkkjkkkkkkknn"
};
