/* XPM */
const char *quint_in_xpm[] = {
/* columns rows colors chars-per-pixel */
"32 24 57 1 ",
"  c #78B3ED",
". c #6AB5FF",
"X c #6EB7FF",
"o c #6FB8FF",
"O c #75BBFF",
"+ c #78BCFF",
"@ c #7ABCFF",
"# c #7EBFFF",
"$ c #8DBDED",
"% c #87BFF6",
"& c #85C2FF",
"* c #89C2FB",
"= c #88C3FF",
"- c #8FC8FF",
"; c #92C9FF",
": c #93C9FF",
"> c #96CBFF",
", c #99CCFF",
"< c #9BCDFF",
"1 c #B5D1ED",
"2 c #A4D2FF",
"3 c #A6D3FF",
"4 c #A7D3FF",
"5 c #A9D4FF",
"6 c #AED7FF",
"7 c #BCDDFF",
"8 c #DFE6ED",
"9 c #C0E0FF",
"0 c #C1E0FF",
"q c #C7E3FF",
"w c #C9E4FF",
"e c #CDE6FF",
"r c #D1E8FF",
"t c #D5EAFF",
"y c #DBEDFF",
"u c #DEEEFF",
"i c #EDEDED",
"p c #EFEFEF",
"a c #F1EFED",
"s c #E8EFF5",
"d c #E1EDF8",
"f c #E1F0FF",
"g c #E7F3FF",
"h c #EBF5FF",
"j c #EDF6FF",
"k c #EEF7FF",
"l c #F3F3F3",
"z c #F2F3F4",
"x c #F4F4F4",
"c c #F6F6F6",
"v c #F8F6F4",
"b c #F3F9FF",
"n c #F4F9FF",
"m c #F7FBFF",
"M c #FAFAFA",
"N c #FAFDFF",
"B c #FEFEFE",
/* pixels */
"MlllllllllllllllllllllllllllldbB",
"Mpplppppplppppplppppplppppplp%yB",
"BBBBBBBBBBBBBBBBBBBBBBBBBBBBh#bB",
"BBBBBBBBBBBBBBBBBBBBBBBBBBBBq:BB",
"BBBBBBBBBBBBBBBBBBBBBBBBBBBB,7BB",
"BBBBBBBBBBBBBBBBBBBBBBBBBBBb@gBB",
"BBBBBBBBBBBBBBBBBBBBBBBBBBBe=BBB",
"BBBBBBBBBBBBBBBBBBBBBBBBBBB:7BBB",
"BBBBBBBBBBBBBBBBBBBBBBBBBBk@hBBB",
"BBBBBBBBBBBBBBBBBBBBBBBBBB7-BBBB",
"BBBBBBBBBBBBBBBBBBBBBBBBBB#eBBBB",
"BBBBBBBBBBBBBBBBBBBBBBBBBe@NBBBB",
"BBBBBBBBBBBBBBBBBBBBBBBBB&0BBBBB",
"BBBBBBBBBBBBBBBBBBBBBBBBrOmBBBBB",
"BBBBBBBBBBBBBBBBBBBBBBBN@0BBBBBB",
"BBBBBBBBBBBBBBBBBBBBBBB6&NBBBBBB",
"BBBBBBBBBBBBBBBBBBBBBBy.fBBBBBBB",
"BBBBBBBBBBBBBBBBBBBBBho7BBBBBBBB",
"BBBBBBBBBBBBBBBBBBBBh+4BBBBBBBBB",
"BBBBBBBBBBBBBBBBBBByX4BBBBBBBBBB",
"BBBBBBBBBBBBBBBBBg>X0BBBBBBBBBBB",
"BBBBBBBBBBBBNmd9:O2kBBBBBBBBBBBB",
"w555555222,>*  $18apppppppppplBB",
"ywwwwwwwertufszvcclccxlllclclcBB"
};
