/* XPM */
const char *sine_in_xpm[] = {
/* columns rows colors chars-per-pixel */
"32 24 51 1 ",
"  c #72B0EE",
". c #6BB2F8",
"X c #69B5FF",
"o c #6DB7FF",
"O c #6FB7FF",
"+ c #70B8FF",
"@ c #77BCFF",
"# c #88BBED",
"$ c #82C1FF",
"% c #85C2FF",
"& c #88C4FF",
"* c #96CBFF",
"= c #97CBFF",
"- c #99CCFF",
"; c #B6D2ED",
": c #A2D1FF",
"> c #A8D3FF",
", c #ABD6FF",
"< c #ACD6FF",
"1 c #B0D8FF",
"2 c #BBDDFF",
"3 c #C7DBEF",
"4 c #C3E1FF",
"5 c #C6E3FF",
"6 c #CBE5FF",
"7 c #D0E8FF",
"8 c #D5EAFF",
"9 c #DCEBFA",
"0 c #DAEDFF",
"q c #DEEEFF",
"w c #E3E8ED",
"e c #EFEFEF",
"r c #F1EFED",
"t c #F2F0EF",
"y c #E2EFFC",
"u c #E0EFFF",
"i c #EEF1F5",
"p c #E7F3FF",
"a c #E8F3FF",
"s c #E9F4FF",
"d c #EDF6FF",
"f c #F3F3F3",
"g c #F4F4F3",
"h c #F4F4F4",
"j c #F5F5F4",
"k c #F8F6F4",
"l c #F3F9FF",
"z c #F6FBFF",
"x c #FAFAFA",
"c c #F9FCFF",
"v c #FEFEFE",
/* pixels */
"xfffffffffffffffffffffffffffg9lv",
"xeefeeeeefeeeeefeeeeefeeeeet3.sv",
"vvvvvvvvvvvvvvvvvvvvvvvvvvvao4vv",
"vvvvvvvvvvvvvvvvvvvvvvvvvvl@<vvv",
"vvvvvvvvvvvvvvvvvvvvvvvvvc&=vvvv",
"vvvvvvvvvvvvvvvvvvvvvvvvv-%cvvvv",
"vvvvvvvvvvvvvvvvvvvvvvvv,@lvvvvv",
"vvvvvvvvvvvvvvvvvvvvvvv2oavvvvvv",
"vvvvvvvvvvvvvvvvvvvvvv4Xqvvvvvvv",
"vvvvvvvvvvvvvvvvvvvvv7o8vvvvvvvv",
"vvvvvvvvvvvvvvvvvvvv8X6vvvvvvvvv",
"vvvvvvvvvvvvvvvvvvv0o4vvvvvvvvvv",
"vvvvvvvvvvvvvvvvvv0X4vvvvvvvvvvv",
"vvvvvvvvvvvvvvvvv8X4vvvvvvvvvvvv",
"vvvvvvvvvvvvvvvv6X4vvvvvvvvvvvvv",
"vvvvvvvvvvvvvvv2X7vvvvvvvvvvvvvv",
"vvvvvvvvvvvvvc:+qvvvvvvvvvvvvvvv",
"vvvvvvvvvvvvs$%dvvvvvvvvvvvvvvvv",
"vvvvvvvvvvv4o>cvvvvvvvvvvvvvvvvv",
"vvvvvvvcvp&@7vvvvvvvvvvvvvvvvvvv",
"vvvvvvvp=o1zvvvvvvvvvvvvvvvvvvvv",
"vvvcp4&@,dvvvvvvvvvvvvvvvvvvvvvv",
"6:=$ #;wreeeeeeereeeeeeeeeeeefvv",
"q68yijjjfjjjjffjjjfjjjfjjjjjjjvv"
};
