/* XPM */
const char *sine_in_out_xpm[] = {
/* columns rows colors chars-per-pixel */
"32 24 54 1 ",
"  c #6FAFEF",
". c #7BB5EE",
"X c #6AB5FF",
"o c #6DB6FF",
"O c #72B4F6",
"+ c #71B9FF",
"@ c #76BBFF",
"# c #77BBFF",
"$ c #7ABDFF",
"% c #9CC5ED",
"& c #81C0FF",
"* c #87C4FF",
"= c #8DC6FF",
"- c #93C9FF",
"; c #95CBFF",
": c #98CCFF",
"> c #9ECFFF",
", c #BCD5EF",
"< c #A2D1FF",
"1 c #A5D2FF",
"2 c #ABD5FF",
"3 c #AFD7FF",
"4 c #B0D7FF",
"5 c #B4D9FF",
"6 c #B8DCFF",
"7 c #BEDFFF",
"8 c #DEE6ED",
"9 c #C4E2FF",
"0 c #CAE4FF",
"q c #CEE6FF",
"w c #D2E9FF",
"e c #D5EAFF",
"r c #DAECFF",
"t c #DDEEFF",
"y c #DFEFFF",
"u c #EFEFEF",
"i c #E2EDF8",
"p c #E0EEFD",
"a c #E0F0FF",
"s c #E6F3FF",
"d c #E7F3FF",
"f c #E9F4FF",
"g c #EFF7FF",
"h c #F3F3F3",
"j c #F4F3F3",
"k c #F6F4F3",
"l c #F0F3F5",
"z c #F4F4F4",
"x c #F8F6F4",
"c c #F3F9FF",
"v c #F4FAFF",
"b c #FAFAFA",
"n c #FAFDFF",
"m c #FEFEFE",
/* pixels */
"bhhhhhhhhhhhhhhhhhhhhhhhhkkiq9vm",
"buuhuuuuuhuuuuuhuuuuuhuuu,.O-3cm",
"mmmmmmmmmmmmmmmmmmmmmmmd*$9cmmmm",
"mmmmmmmmmmmmmmmmmmmmmm9X2vmmmmmm",
"mmmmmmmmmmmmmmmmmmmmm4oemmmmmmmm",
"mmmmmmmmmmmmmmmmmmmm<@dmmmmmmmmm",
"mmmmmmmmmmmmmmmmmmm1@gmmmmmmmmmm",
"mmmmmmmmmmmmmmmmmm2@fmmmmmmmmmmm",
"mmmmmmmmmmmmmmmmm6+fmmmmmmmmmmmm",
"mmmmmmmmmmmmmmmm0Xymmmmmmmmmmmmm",
"mmmmmmmmmmmmmmmrXwmmmmmmmmmmmmmm",
"mmmmmmmmmmmmmmfo7mmmmmmmmmmmmmmm",
"mmmmmmmmmmmmmv$2mmmmmmmmmmmmmmmm",
"mmmmmmmmmmmmn=-mmmmmmmmmmmmmmmmm",
"mmmmmmmmmmmm>&vmmmmmmmmmmmmmmmmm",
"mmmmmmmmmmm3@gmmmmmmmmmmmmmmmmmm",
"mmmmmmmmmm5odmmmmmmmmmmmmmmmmmmm",
"mmmmmmmmm5odmmmmmmmmmmmmmmmmmmmm",
"mmmmmmmm3oammmmmmmmmmmmmmmmmmmmm",
"mmmmmmv:@dmmmmmmmmmmmmmmmmmmmmmm",
"mmmmmr$=cmmmmmmmmmmmmmmmmmmmmmmm",
"mmny;+6mmmmmmmmmmmmmmmmmmmmmmmmm",
"0;& %8uuuuuuuuuuuuuuuuuuuuuuuhmm",
"yqylxkhzhzzzzzhzzzhzzzhzzzzzzzmm"
};
