/* XPM */
const char *sine_out_xpm[] = {
/* columns rows colors chars-per-pixel */
"32 24 52 1 ",
"  c #75B2EE",
". c #69B4FF",
"X c #6FB7FF",
"o c #6FB8FF",
"O c #77B6F4",
"+ c #71B8FF",
"@ c #75BAFF",
"# c #7ABDFF",
"$ c #7EBFFF",
"% c #7FBFFF",
"& c #85BBF1",
"* c #98C4EF",
"= c #81C0FF",
"- c #84C2FF",
"; c #86C3FF",
": c #8CC6FF",
"> c #8EC7FF",
", c #90C8FF",
"< c #96CBFF",
"1 c #98CCFF",
"2 c #9CCEFF",
"3 c #A1D0FF",
"4 c #A6D3FF",
"5 c #ABD6FF",
"6 c #B4D9FF",
"7 c #BBDDFF",
"8 c #BCDEFF",
"9 c #CCDDEF",
"0 c #C4E2FF",
"q c #C6E2FF",
"w c #CBE5FF",
"e c #CEE7FF",
"r c #D8ECFF",
"t c #DBEDFF",
"y c #DCEDFF",
"u c #EFEFEF",
"i c #F2F0EF",
"p c #E2ECF7",
"a c #EEF2F7",
"s c #E1F0FE",
"d c #E8F3FF",
"f c #EBF5FF",
"g c #EEF6FF",
"h c #F3F3F3",
"j c #F5F4F3",
"k c #F4F4F4",
"l c #F3F9FF",
"z c #F5FAFF",
"x c #F7FBFF",
"c c #FAFAFA",
"v c #FBFDFF",
"b c #FEFEFE",
/* pixels */
"chhhhhhhhhhhhhhhhhhhhhhjjhpt00xb",
"cuuhuuuuuhuuuuuhuuuuuiu9* O,36lb",
"bbbbbbbbbbbbbbbbbbbbvw=#5txbbbbb",
"bbbbbbbbbbbbbbbbbbbr%%0vbbbbbbbb",
"bbbbbbbbbbbbbbbbbx2+8bbbbbbbbbbb",
"bbbbbbbbbbbbbbbbt@,fbbbbbbbbbbbb",
"bbbbbbbbbbbbbbb8.7bbbbbbbbbbbbbb",
"bbbbbbbbbbbbbv3+tbbbbbbbbbbbbbbb",
"bbbbbbbbbbbbx>=fbbbbbbbbbbbbbbbb",
"bbbbbbbbbbbl=:xbbbbbbbbbbbbbbbbb",
"bbbbbbbbbbl%<vbbbbbbbbbbbbbbbbbb",
"bbbbbbbbbl%1bbbbbbbbbbbbbbbbbbbb",
"bbbbbbbbx%<bbbbbbbbbbbbbbbbbbbbb",
"bbbbbbbx;,vbbbbbbbbbbbbbbbbbbbbb",
"bbbbbbv,:vbbbbbbbbbbbbbbbbbbbbbb",
"bbbbbb2=xbbbbbbbbbbbbbbbbbbbbbbb",
"bbbbb5@lbbbbbbbbbbbbbbbbbbbbbbbb",
"bbbb7Xdbbbbbbbbbbbbbbbbbbbbbbbbb",
"bbbe.tbbbbbbbbbbbbbbbbbbbbbbbbbb",
"bby.ebbbbbbbbbbbbbbbbbbbbbbbbbbb",
"bfX7bbbbbbbbbbbbbbbbbbbbbbbbbbbb",
"x%4bbbbbbbbbbbbbbbbbbbbbbbbbbbbb",
"1&uuuuuuuuuuuuuuuuuuuuuuuuuuuhbb",
"sakhkhhkhkkkkkhkkkhkkkhkkkkkkkbb"
};
