/* XPM */
static const char *back_out_xpm[] = {
/* columns rows colors chars-per-pixel */
"32 24 62 1 ",
"  c #65AEF6",
". c #6BB6FF",
"X c #74B3F1",
"o c #75B5F4",
"O c #71B8FF",
"+ c #75BAFF",
"@ c #7BBDFF",
"# c #7EBFFF",
"$ c #84BDF6",
"% c #80C0FF",
"& c #86C3FF",
"* c #8BC6FF",
"= c #8EC6FD",
"- c #9DC9F4",
"; c #90C8FF",
": c #96CBFF",
"> c #99CCFF",
", c #9CCEFF",
"< c #A2CBF4",
"1 c #A1D1FF",
"2 c #A6D3FF",
"3 c #A9D4FF",
"4 c #AED7FF",
"5 c #B9D5F0",
"6 c #B0D8FF",
"7 c #B5DAFF",
"8 c #B9DCFF",
"9 c #BDDEFF",
"0 c #C2DBF4",
"q c #CBDEF1",
"w c #C1DFFD",
"e c #C1E0FF",
"r c #C6E3FF",
"t c #CEE7FF",
"y c #DDE7F1",
"u c #DDE9F4",
"i c #D2E8FF",
"p c #D4EAFF",
"a c #D9ECFF",
"s c #E0E7EE",
"d c #EDEDED",
"f c #F0EFEF",
"g c #F2F0EF",
"h c #EFF2F4",
"j c #EFF3F6",
"k c #E0F0FF",
"l c #E6F2FF",
"z c #E8F3FF",
"x c #E8F4FF",
"c c #EFF7FF",
"v c #F1F1F1",
"b c #F0F3F6",
"n c #F3F4F4",
"m c #F4F4F4",
"M c #F5F5F4",
"N c #F8F6F4",
"B c #F0F8FF",
"V c #F1F8FF",
"C c #F5FAFF",
"Z c #FAFAFA",
"A c #FAFDFF",
"S c #FFFFFF",
/* pixels */
"SSSSSSSSSSSSSSVarerilCSSSSSSSSSS",
"SSSSSSSSSSSSk,#*142:*&:6aVSSSSSS",
"Zmmmmmmmmmj1 <ummNmmbu0-$o$17rCS",
"ZddddvddgyX$ygfdgfdgdfggdsqw77cS",
"SSSSSSSSV@,ASSSSSSSSSSSSSSSSSSSS",
"SSSSSSSA&>SSSSSSSSSSSSSSSSSSSSSS",
"SSSSSSS3%ASSSSSSSSSSSSSSSSSSSSSS",
"SSSSSSp.lSSSSSSSSSSSSSSSSSSSSSSS",
"SSSSSA@9SSSSSSSSSSSSSSSSSSSSSSSS",
"SSSSS8%SSSSSSSSSSSSSSSSSSSSSSSSS",
"SSSSVOpSSSSSSSSSSSSSSSSSSSSSSSSS",
"SSSS6;SSSSSSSSSSSSSSSSSSSSSSSSSS",
"SSSC+aSSSSSSSSSSSSSSSSSSSSSSSSSS",
"SSS9&SSSSSSSSSSSSSSSSSSSSSSSSSSS",
"SSA#tSSSSSSSSSSSSSSSSSSSSSSSSSSS",
"SSp#ASSSSSSSSSSSSSSSSSSSSSSSSSSS",
"SS>6SSSSSSSSSSSSSSSSSSSSSSSSSSSS",
"SV+xSSSSSSSSSSSSSSSSSSSSSSSSSSSS",
"S9;SSSSSSSSSSSSSSSSSSSSSSSSSSSSS",
"S*rSSSSSSSSSSSSSSSSSSSSSSSSSSSSS",
"l#VSSSSSSSSSSSSSSSSSSSSSSSSSSSSS",
"7:SSSSSSSSSSSSSSSSSSSSSSSSSSSSSS",
"=5fddddddddddddddddddddddddddvSS",
"ljmmmmmmmmmmmmmmmmmmmmmmmmmmnmSS"
};
