/* XPM */
static const char *circ_in_xpm[] = {
/* columns rows colors chars-per-pixel */
"32 24 54 1 ",
"  c #75B2ED",
". c #68B4FF",
"X c #6BB5FF",
"o c #6FB7FF",
"O c #7DB8F3",
"+ c #74BAFF",
"@ c #7ABDFF",
"# c #7FBFFF",
"$ c #83B8ED",
"% c #98C3ED",
"& c #83C1FF",
"* c #89C4FF",
"= c #8CC5FF",
"- c #9AC8F5",
"; c #90C7FF",
": c #92C9FF",
"> c #95CAFF",
", c #9CCEFF",
"< c #B6D2ED",
"1 c #A1D0FF",
"2 c #A6D3FF",
"3 c #ABD5FF",
"4 c #ACD6FF",
"5 c #B1D8FF",
"6 c #B8DCFF",
"7 c #BEDFFF",
"8 c #BFDFFF",
"9 c #D6E2ED",
"0 c #C5E2FF",
"q c #C9E4FF",
"w c #CEE7FF",
"e c #D0E8FF",
"r c #D6EAFF",
"t c #D7EBFF",
"y c #DAECFF",
"u c #DEEFFF",
"i c #DFEFFF",
"p c #EFEFEF",
"a c #F1EFED",
"s c #E2EDF8",
"d c #EEF1F4",
"f c #E1F0FF",
"g c #E4F2FF",
"h c #EAF5FF",
"j c #EEF6FF",
"k c #EFF7FF",
"l c #F3F3F3",
"z c #F5F4F4",
"x c #F9F7F4",
"c c #F3F9FF",
"v c #F6FBFF",
"b c #FAFAFA",
"n c #FBFDFF",
"m c #FEFEFE",
/* pixels */
"bllllllllllllllllllllllllllllscm",
"bpplppppplppppplppppplpppppla-rm",
"mmmmmmmmmmmmmmmmmmmmmmmmmmmmm>um",
"mmmmmmmmmmmmmmmmmmmmmmmmmmmmn=hm",
"mmmmmmmmmmmmmmmmmmmmmmmmmmmmj&vm",
"mmmmmmmmmmmmmmmmmmmmmmmmmmmme=mm",
"mmmmmmmmmmmmmmmmmmmmmmmmmmmm15mm",
"mmmmmmmmmmmmmmmmmmmmmmmmmmmj+gmm",
"mmmmmmmmmmmmmmmmmmmmmmmmmmm4:mmm",
"mmmmmmmmmmmmmmmmmmmmmmmmmmhoummm",
"mmmmmmmmmmmmmmmmmmmmmmmmmm:,mmmm",
"mmmmmmmmmmmmmmmmmmmmmmmmm0+cmmmm",
"mmmmmmmmmmmmmmmmmmmmmmmmr.ymmmmm",
"mmmmmmmmmmmmmmmmmmmmmmmfo0mmmmmm",
"mmmmmmmmmmmmmmmmmmmmmmyo6mmmmmmm",
"mmmmmmmmmmmmmmmmmmmmm0.7mmmmmmmm",
"mmmmmmmmmmmmmmmmmmmv1ormmmmmmmmm",
"mmmmmmmmmmmmmmmmmmw+=jmmmmmmmmmm",
"mmmmmmmmmmmmmmmmr*+qmmmmmmmmmmmm",
"mmmmmmmmmmmmmnw*+6vmmmmmmmmmmmmm",
"mmmmmmmmmmvy3@&7vmmmmmmmmmmmmmmm",
"mmmmmbhr6,#&3unmmmmmmmmmmmmmmmmm",
"q21,:O $%<9papppppppppppppppplmm",
"uqwrfgdzxxzlzllzzzlzzzlzzzzzzzmm"
};
