/* XPM */
static const char *circ_in_out_xpm[] = {
/* columns rows colors chars-per-pixel */
"32 24 56 1 ",
"  c #71B0EF",
". c #7BB4ED",
"X c #6CB6FF",
"o c #6EB7FF",
"O c #74B3F1",
"+ c #72B9FF",
"@ c #75BAFF",
"# c #77BCFF",
"$ c #79BCFF",
"% c #87BBEF",
"& c #81BDF8",
"* c #82C0FF",
"= c #87C3FF",
"- c #8EC7FF",
"; c #96CBFF",
": c #97CBFF",
"> c #98CCFF",
", c #9CCDFF",
"< c #A1C7ED",
"1 c #B5D2EF",
"2 c #A1D0FF",
"3 c #A5D2FF",
"4 c #AAD4FF",
"5 c #B4DAFF",
"6 c #B7DBFF",
"7 c #B9DCFF",
"8 c #BEDEFF",
"9 c #D2E0ED",
"0 c #C1E0FF",
"q c #C7E3FF",
"w c #CAE5FF",
"e c #D0E8FF",
"r c #D4E9FF",
"t c #D7ECFF",
"y c #DFECFA",
"u c #DAEDFF",
"i c #DFEFFF",
"p c #E3E9EF",
"a c #EFEFEF",
"s c #F2F0EF",
"d c #E9F0F6",
"f c #E1F0FE",
"g c #E1F0FF",
"h c #E5F2FF",
"j c #E8F4FF",
"k c #EDF6FF",
"l c #F3F3F3",
"z c #F6F5F3",
"x c #F4F4F4",
"c c #F5F5F4",
"v c #F9F7F4",
"b c #F0F8FF",
"n c #F4F9FF",
"m c #F6FBFF",
"M c #FAFAFA",
"N c #FEFEFE",
/* pixels */
"MllllllllllllllllllllllzzdyrqqnN",
"Maalaaaaalaaaaalaaaaasp1% &>25nN",
"NNNNNNNNNNNNNNNNNNNNb4#-0jNNNNNN",
"NNNNNNNNNNNNNNNNNNNqo;gNNNNNNNNN",
"NNNNNNNNNNNNNNNNNN3oeNNNNNNNNNNN",
"NNNNNNNNNNNNNNNNN2$kNNNNNNNNNNNN",
"NNNNNNNNNNNNNNNN8+kNNNNNNNNNNNNN",
"NNNNNNNNNNNNNNNkotNNNNNNNNNNNNNN",
"NNNNNNNNNNNNNNN4>NNNNNNNNNNNNNNN",
"NNNNNNNNNNNNNNN*uNNNNNNNNNNNNNNN",
"NNNNNNNNNNNNNNk=nNNNNNNNNNNNNNNN",
"NNNNNNNNNNNNNNg-NNNNNNNNNNNNNNNN",
"NNNNNNNNNNNNNNe,NNNNNNNNNNNNNNNN",
"NNNNNNNNNNNNNN84NNNNNNNNNNNNNNNN",
"NNNNNNNNNNNNNN;0NNNNNNNNNNNNNNNN",
"NNNNNNNNNNNNNh+kNNNNNNNNNNNNNNNN",
"NNNNNNNNNNNNN-3NNNNNNNNNNNNNNNNN",
"NNNNNNNNNNNN5$nNNNNNNNNNNNNNNNNN",
"NNNNNNNNNNN5oiNNNNNNNNNNNNNNNNNN",
"NNNNNNNNNn>+gNNNNNNNNNNNNNNNNNNN",
"NNNNNNNn7+;bNNNNNNNNNNNNNNNNNNNN",
"NNNNbe2$-uNNNNNNNNNNNNNNNNNNNNNN",
"w2>-O.<9aaaaaaaasaaaaaaaaaaaazNN",
"gwegdxvzlxxxxllxxxlxxxlxxxxxxxNN"
};
