/* XPM */
static const char *cubic_out_xpm[] = {
/* columns rows colors chars-per-pixel */
"32 24 57 1 ",
"  c #78B4EF",
". c #68B4FF",
"X c #6DB6FF",
"o c #6FB7FF",
"O c #78B5F1",
"+ c #71B9FF",
"@ c #76BBFF",
"# c #7CBEFF",
"$ c #86BBEF",
"% c #81C0FF",
"& c #85C3FF",
"* c #88C4FF",
"= c #8DC6FF",
"- c #90C7FD",
"; c #93C9FF",
": c #9BCDFF",
"> c #9DCEFF",
", c #A8CCEF",
"< c #ACCEF0",
"1 c #A0D0FF",
"2 c #A3D1FF",
"3 c #A8D4FF",
"4 c #AED7FF",
"5 c #AFD7FF",
"6 c #B1D8FF",
"7 c #B5DAFF",
"8 c #BFDFFF",
"9 c #D2E1EF",
"0 c #C2E1FF",
"q c #C6E3FF",
"w c #C9E4FF",
"e c #CEE7FF",
"r c #CFE7FF",
"t c #D0E8FF",
"y c #D3E9FF",
"u c #DAEDFF",
"i c #DCECFC",
"p c #DDEEFF",
"a c #EFEFEF",
"s c #F2F0EF",
"d c #E2EBF4",
"f c #EEF0F3",
"g c #EFF3F6",
"h c #E3F1FE",
"j c #E7F3FF",
"k c #E9F4FF",
"l c #EEF7FF",
"z c #F3F3F3",
"x c #F5F4F3",
"c c #F4F4F4",
"v c #F5F5F4",
"b c #F1F8FF",
"n c #F6FAFF",
"m c #F6FBFF",
"M c #FAFAFA",
"N c #F9FCFF",
"B c #FEFEFE",
/* pixels */
"Mzzzzzzzzzzzzzzzzzxxxfduywq00qmB",
"Maazaaaaazaaaaaasa9,$ O=>13547bB",
"BBBBBBBBBBBBBBBm0&#1wkmBBBBBBBBB",
"BBBBBBBBBBBBBBq@&emBBBBBBBBBBBBB",
"BBBBBBBBBBBBl=@tBBBBBBBBBBBBBBBB",
"BBBBBBBBBBBu+>mBBBBBBBBBBBBBBBBB",
"BBBBBBBBBBe.8BBBBBBBBBBBBBBBBBBB",
"BBBBBBBBBw.tBBBBBBBBBBBBBBBBBBBB",
"BBBBBBBBy.eBBBBBBBBBBBBBBBBBBBBB",
"BBBBBBBjXqBBBBBBBBBBBBBBBBBBBBBB",
"BBBBBBm#4BBBBBBBBBBBBBBBBBBBBBBB",
"BBBBBB:=BBBBBBBBBBBBBBBBBBBBBBBB",
"BBBBBeXlBBBBBBBBBBBBBBBBBBBBBBBB",
"BBBBb+wBBBBBBBBBBBBBBBBBBBBBBBBB",
"BBBB1;BBBBBBBBBBBBBBBBBBBBBBBBBB",
"BBBpXkBBBBBBBBBBBBBBBBBBBBBBBBBB",
"BBB&6BBBBBBBBBBBBBBBBBBBBBBBBBBB",
"BBy@mBBBBBBBBBBBBBBBBBBBBBBBBBBB",
"BB%8BBBBBBBBBBBBBBBBBBBBBBBBBBBB",
"Bw#NBBBBBBBBBBBBBBBBBBBBBBBBBBBB",
"B$0BBBBBBBBBBBBBBBBBBBBBBBBBBBBB",
"e#mBBBBBBBBBBBBBBBBBBBBBBBBBBBBB",
"-<zaaaaaaaaaaaaaaaaaaaaaaaaaazBB",
"hgxzvvzzzvvvvzzvxvxvvvzvvvvvvvBB"
};
