/* XPM */
static const char *quad_in_xpm[] = {
/* columns rows colors chars-per-pixel */
"32 24 54 1 ",
"  c #7CB5ED",
". c #6EB3F8",
"X c #6AB5FF",
"o c #6CB6FF",
"O c #74B3F1",
"+ c #70B8FF",
"@ c #73B9FF",
"# c #76BBFF",
"$ c #7CBEFF",
"% c #7FC0FF",
"& c #9DC5ED",
"* c #87C3FF",
"= c #88C4FF",
"- c #8EC7FF",
"; c #92C9FF",
": c #98CCFF",
"> c #A3D1FF",
", c #A6D3FF",
"< c #A9D5FF",
"1 c #AED7FF",
"2 c #B3D9FF",
"3 c #B6DBFF",
"4 c #BCDEFF",
"5 c #BFDFFF",
"6 c #CADCED",
"7 c #D8E3EF",
"8 c #C7E3FF",
"9 c #C9E4FF",
"0 c #CEE7FF",
"q c #D0E8FF",
"w c #D4EAFF",
"e c #DEECF9",
"r c #DBEDFF",
"t c #DEEEFF",
"y c #EAECED",
"u c #EFEFEF",
"i c #F1EFED",
"p c #F0F0EF",
"a c #E0EFFF",
"s c #E9F0F6",
"d c #E0F0FF",
"f c #E6F2FF",
"g c #EBF5FF",
"h c #EFF7FF",
"j c #F3F3F3",
"k c #F4F3F3",
"l c #F4F4F4",
"z c #F5F5F4",
"x c #F9F7F4",
"c c #F3F9FF",
"v c #F6FBFF",
"b c #FAFAFA",
"n c #FAFCFF",
"m c #FEFEFE",
/* pixels */
"bjjjjjjjjjjjjjjjjjjjjjjjjjjjkecm",
"buujuuuuujuuuuujuuuuujuuuuup7.fm",
"mmmmmmmmmmmmmmmmmmmmmmmmmmmm=,mm",
"mmmmmmmmmmmmmmmmmmmmmmmmmmm2$nmm",
"mmmmmmmmmmmmmmmmmmmmmmmmmmrXdmmm",
"mmmmmmmmmmmmmmmmmmmmmmmmmc@4mmmm",
"mmmmmmmmmmmmmmmmmmmmmmmmm-:mmmmm",
"mmmmmmmmmmmmmmmmmmmmmmmm1$vmmmmm",
"mmmmmmmmmmmmmmmmmmmmmmm8Xfmmmmmm",
"mmmmmmmmmmmmmmmmmmmmmmroqmmmmmmm",
"mmmmmmmmmmmmmmmmmmmmmfo4mmmmmmmm",
"mmmmmmmmmmmmmmmmmmmmg#2mmmmmmmmm",
"mmmmmmmmmmmmmmmmmmmh#,mmmmmmmmmm",
"mmmmmmmmmmmmmmmmmmg#>mmmmmmmmmmm",
"mmmmmmmmmmmmmmmmmdo<mmmmmmmmmmmm",
"mmmmmmmmmmmmmmmmwX2mmmmmmmmmmmmm",
"mmmmmmmmmmmmmmm2X9mmmmmmmmmmmmmm",
"mmmmmmmmmmmmmc;#dmmmmmmmmmmmmmmm",
"mmmmmmmmmmmm8@:vmmmmmmmmmmmmmmmm",
"mmmmmmmmmmr*#0mmmmmmmmmmmmmmmmmm",
"mmmmmmmnq=@2vmmmmmmmmmmmmmmmmmmm",
"mmmmvq<$*4vmmmmmmmmmmmmmmmmmmmmm",
"9>:-O &6yiuuuuuuuuuuuuuuuuuuujmm",
"r9wdszxzlzzjzjjzzzkzzzjzzzzzzzmm"
};
