/* XPM */
static const char *quart_out_xpm[] = {
/* columns rows colors chars-per-pixel */
"32 24 54 1 ",
"  c #76B2EF",
". c #6CB6FF",
"X c #6FB7FF",
"o c #7BB6F0",
"O c #72B9FF",
"+ c #7BBDFF",
"@ c #7CBEFF",
"# c #84B9EF",
"$ c #82C1FF",
"% c #84C2FF",
"& c #8DC4FB",
"* c #8EC6FD",
"= c #90C8FF",
"- c #93C9FF",
"; c #96CBFF",
": c #9DCEFF",
"> c #A4CAEF",
", c #A1D0FF",
"< c #A5D2FF",
"1 c #A8D4FF",
"2 c #AAD4FF",
"3 c #ACD5FF",
"4 c #B7D4F0",
"5 c #B3D9FF",
"6 c #B5DAFF",
"7 c #BBDDFF",
"8 c #BCDEFF",
"9 c #D0DFEF",
"0 c #C3E1FF",
"q c #C6E3FF",
"w c #C7E3FF",
"e c #CCE6FF",
"r c #CEE7FF",
"t c #D3E9FF",
"y c #D6EAFF",
"u c #DEEDFC",
"i c #EFEFEF",
"p c #F0EFED",
"a c #F2F0EF",
"s c #E2EBF4",
"d c #EFF3F6",
"f c #E1F0FF",
"g c #E5F2FF",
"h c #EAF5FF",
"j c #EFF7FF",
"k c #F3F3F3",
"l c #F5F4F3",
"z c #F4F4F4",
"x c #F5F5F4",
"c c #F1F8FF",
"v c #F7FBFF",
"b c #FAFAFA",
"n c #FAFCFF",
"m c #FEFEFE",
/* pixels */
"bkkkkkkkkkkkkkkllldsuyew00000wvm",
"biikiiiiikiiipi9># o&:,2233536cm",
"mmmmmmmmmmmmne$+<ehvmmmmmmmmmmmm",
"mmmmmmmmmmmu$+qvmmmmmmmmmmmmmmmm",
"mmmmmmmmmm0.6nmmmmmmmmmmmmmmmmmm",
"mmmmmmmmm5Xymmmmmmmmmmmmmmmmmmmm",
"mmmmmmmm6Xgmmmmmmmmmmmmmmmmmmmmm",
"mmmmmmme.fmmmmmmmmmmmmmmmmmmmmmm",
"mmmmmmgXemmmmmmmmmmmmmmmmmmmmmmm",
"mmmmmm%3mmmmmmmmmmmmmmmmmmmmmmmm",
"mmmmm8+nmmmmmmmmmmmmmmmmmmmmmmmm",
"mmmmjXymmmmmmmmmmmmmmmmmmmmmmmmm",
"mmmm<;mmmmmmmmmmmmmmmmmmmmmmmmmm",
"mmmhOgmmmmmmmmmmmmmmmmmmmmmmmmmm",
"mmm,:mmmmmmmmmmmmmmmmmmmmmmmmmmm",
"mmjOgmmmmmmmmmmmmmmmmmmmmmmmmmmm",
"mm6-mmmmmmmmmmmmmmmmmmmmmmmmmmmm",
"mn@tmmmmmmmmmmmmmmmmmmmmmmmmmmmm",
"mt@mmmmmmmmmmmmmmmmmmmmmmmmmmmmm",
"m-7mmmmmmmmmmmmmmmmmmmmmmmmmmmmm",
"j+hmmmmmmmmmmmmmmmmmmmmmmmmmmmmm",
"7=mmmmmmmmmmmmmmmmmmmmmmmmmmmmmm",
"*4aiiiiiiiiiiiiiiiiiiiiiiiiiikmm",
"fdxxxxkkkxxxxkkxxxkxxxkxxxxxxxmm"
};
