/* XPM */
static const char *quart_in_out_xpm[] = {
/* columns rows colors chars-per-pixel */
"32 24 59 1 ",
"  c #72B0ED",
". c #7EB6EF",
"X c #6AB5FF",
"o c #6FB8FF",
"O c #71B1F1",
"+ c #7BB8F6",
"@ c #71B8FF",
"# c #76BBFF",
"$ c #77BBFF",
"% c #7ABDFF",
"& c #7DBEFF",
"* c #9CC5ED",
"= c #81C0FF",
"- c #87C3FF",
"; c #8AC4FC",
": c #8DC6FF",
"> c #8EC7FF",
", c #93C9FF",
"< c #97CBFF",
"1 c #98CCFF",
"2 c #9CCDFF",
"3 c #9FCFFF",
"4 c #BBD5EF",
"5 c #A0D0FF",
"6 c #A5D2FF",
"7 c #A9D4FF",
"8 c #ADD6FF",
"9 c #AFD7FF",
"0 c #B3D9FF",
"q c #B6DAFF",
"w c #BEDEFF",
"e c #DDE5ED",
"r c #C3E2FF",
"t c #C5E2FF",
"y c #C9E4FF",
"u c #CCE6FF",
"i c #D0E7FF",
"p c #D2E8FF",
"a c #D6EAFF",
"s c #D6EBFF",
"d c #D9EBFD",
"f c #DBEDFF",
"g c #EFEFEF",
"h c #F0EFED",
"j c #E5EDF4",
"k c #E2F0FF",
"l c #E5F2FF",
"z c #EFF7FF",
"x c #F3F3F3",
"c c #F4F3F3",
"v c #F1F3F4",
"b c #F4F4F4",
"n c #F9F6F4",
"m c #F2F9FF",
"M c #F5FAFF",
"N c #F7FBFF",
"B c #FAFAFA",
"V c #F8FCFF",
"C c #FEFEFE",
/* pixels */
"BxxxxxxxxxxxxxxxxxxxcccjdutrrtmC",
"Bggxgggggxgggggxggggg4.O;3798qmC",
"CCCCCCCCCCCCCCCCCCCm:%rmCCCCCCCC",
"CCCCCCCCCCCCCCCCCCm&<MCCCCCCCCCC",
"CCCCCCCCCCCCCCCCCC:<CCCCCCCCCCCC",
"CCCCCCCCCCCCCCCCCw%MCCCCCCCCCCCC",
"CCCCCCCCCCCCCCCCmosCCCCCCCCCCCCC",
"CCCCCCCCCCCCCCCC8,CCCCCCCCCCCCCC",
"CCCCCCCCCCCCCCCM$fCCCCCCCCCCCCCC",
"CCCCCCCCCCCCCCCt-CCCCCCCCCCCCCCC",
"CCCCCCCCCCCCCCC-tCCCCCCCCCCCCCCC",
"CCCCCCCCCCCCCCl%MCCCCCCCCCCCCCCC",
"CCCCCCCCCCCCCCq2CCCCCCCCCCCCCCCC",
"CCCCCCCCCCCCCC=pCCCCCCCCCCCCCCCC",
"CCCCCCCCCCCCCs%VCCCCCCCCCCCCCCCC",
"CCCCCCCCCCCCC,0CCCCCCCCCCCCCCCCC",
"CCCCCCCCCCCCk@mCCCCCCCCCCCCCCCCC",
"CCCCCCCCCCCC:7CCCCCCCCCCCCCCCCCC",
"CCCCCCCCCCCr#MCCCCCCCCCCCCCCCCCC",
"CCCCCCCCCCfXsCCCCCCCCCCCCCCCCCCC",
"CCCCCCCCCpXwCCCCCCCCCCCCCCCCCCCC",
"CCCCCCMf<@yCCCCCCCCCCCCCCCCCCCCC",
"y7765<+ *egggggggggggggggggggxCC",
"kyyyudlvnbbbbbxbbbxbbbxbbbbbbbCC"
};
