/* XPM */
const char* adjust_horizontally_xpm[] = {
"16 16 79 1",
" 	c None",
".	c #BF0000",
"+	c #E6E6E6",
"@	c #400000",
"#	c #CFE5E6",
"$	c #CCE2E4",
"%	c #CAE0E2",
"&	c #C8DEDF",
"*	c #C5DBDD",
"=	c #C2D9DB",
"-	c #BFD7D8",
";	c #BDD4D6",
">	c #BAD2D5",
",	c #B7D0D2",
"'	c #B5CDD0",
")	c #B2CCCD",
"!	c #B0C9CB",
"~	c #CCE2E5",
"{	c #C7DDDF",
"]	c #BDD5D6",
"^	c #BAD3D4",
"/	c #B5CED0",
"(	c #B2CBCD",
"_	c #AFC9CB",
":	c #ADC7C8",
"<	c #C8DDDF",
"[	c #C5DCDE",
"}	c #C0D7D9",
"|	c #BCD5D7",
"1	c #BAD2D4",
"2	c #B8D0D2",
"3	c #B0C9CC",
"4	c #ADC7C9",
"5	c #AAC4C7",
"6	c #C7DEE0",
"7	c #C4DBDE",
"8	c #C2DADB",
"9	c #C0D7D8",
"0	c #AFCACB",
"a	c #AAC5C7",
"b	c #A8C2C4",
"c	c #C4DCDD",
"d	c #BFD7D9",
"e	c #B2CBCE",
"f	c #AAC5C6",
"g	c #A8C3C5",
"h	c #A5C0C2",
"i	c #B8D1D2",
"j	c #A3BEC0",
"k	c #9FBCBE",
"l	c #A0BCBE",
"m	c #9EB9BB",
"n	c #ABC5C6",
"o	c #A0BBBD",
"p	c #9BB7B9",
"q	c #B0CACC",
"r	c #AEC7CA",
"s	c #9DB9BC",
"t	c #98B4B7",
"u	c #B6CED0",
"v	c #B3CBCD",
"w	c #ABC5C7",
"x	c #A8C3C4",
"y	c #A0BBBE",
"z	c #9DB9BB",
"A	c #9BB8B9",
"B	c #98B5B7",
"C	c #96B3B4",
"D	c #B3CCCE",
"E	c #A6C0C2",
"F	c #9EBABB",
"G	c #95B2B5",
"H	c #93B0B2",
"I	c #A2BEC0",
"J	c #9DBABC",
"K	c #96B3B5",
"L	c #93B1B3",
"M	c #90AEB0",
"N	c #808080",
" .+++++++++++++.",
"@.#$%&*=-;>,')!.",
"@.~%{*=-]^,/(_:.",
"@.%<[=}|12/)345.",
"@.6789;1,'(04ab.",
"@.c8d.>,'e_.fgh.",
"@.=}..i')!@..hj.",
"@.d...........k.",
"@.@@..@@@@@..lm.",
"@.>@@.!4ng@.omp.",
"@.2/@qrnbh@ospt.",
"@.uv34wxhjyzABC.",
"@.Dq4wxEjyFpBGH.",
"@.34aghIoJpBKLM.",
"@.+++++++++++++.",
"@NNNNNNNNNNNNN@ "};
