/* XPM */
const char* align_top_xpm[] = {
"16 16 29 1",
" 	c None",
".	c #BF0000",
"+	c #400000",
"@	c #CBE1E2",
"#	c #D1E6E8",
"$	c #C6DCDE",
"%	c #CCE2E3",
"&	c #C1D8DA",
"*	c #C7DEDF",
"=	c #BCD4D5",
"-	c #C2D9DB",
";	c #B7CFD1",
">	c #BDD4D6",
",	c #B2CBCD",
"'	c #B8D0D2",
")	c #ADC6C8",
"!	c #B3CCCD",
"~	c #A7C2C3",
"{	c #AEC8C9",
"]	c #A3BEBF",
"^	c #A8C3C5",
"/	c #9DB9BA",
"(	c #A3BEC0",
"_	c #98B5B6",
":	c #9EBABB",
"<	c #93B0B2",
"[	c #9AB6B8",
"}	c #8EACAE",
"|	c #94B1B3",
"  . .  .... . . ",
" + @#. .@#.+ @#.",
"  .$% +.$%. .$% ",
" + &*.+.&*.+ &*.",
"  .=- +.=-. .=- ",
" + ;>.+.;>.+ ;>.",
"  .,' +.,'. . . ",
" + )!.+.)!.+ +  ",
"  .~{ +.~{.     ",
" + ]^.+.]^.     ",
"  ./( +....     ",
" + _:.++++      ",
"  .<[           ",
" + }|.          ",
"  . .           ",
" + +            "};
