/* XPM */
const char* bright_xpm[] = {
"16 16 92 2",
"  	c None",
". 	c #484848",
"+ 	c #4F4F4F",
"@ 	c #565656",
"# 	c #5C5C5C",
"$ 	c #626262",
"% 	c #666666",
"& 	c #686868",
"* 	c #696969",
"= 	c #676767",
"- 	c #646464",
"; 	c #606060",
"> 	c #5A5A5A",
", 	c #545454",
"' 	c #4C4C4C",
") 	c #454545",
"! 	c #505050",
"~ 	c #585858",
"{ 	c #5F5F5F",
"] 	c #6C6C6C",
"^ 	c #707070",
"/ 	c #737373",
"( 	c #757575",
"_ 	c #747474",
": 	c #727272",
"< 	c #6F6F6F",
"[ 	c #6A6A6A",
"} 	c #5D5D5D",
"| 	c #555555",
"1 	c #575757",
"2 	c #767676",
"3 	c #7B7B7B",
"4 	c #151515",
"5 	c #030303",
"6 	c #191919",
"7 	c #797979",
"8 	c #6D6D6D",
"9 	c #656565",
"0 	c #535353",
"a 	c #787878",
"b 	c #7F7F7F",
"c 	c #212121",
"d 	c #000000",
"e 	c #1E1E1E",
"f 	c #7D7D7D",
"g 	c #636363",
"h 	c #595959",
"i 	c #777777",
"j 	c #808080",
"k 	c #888888",
"l 	c #171717",
"m 	c #010101",
"n 	c #8C8C8C",
"o 	c #858585",
"p 	c #7C7C7C",
"q 	c #868686",
"r 	c #909090",
"s 	c #424242",
"t 	c #0D0D0D",
"u 	c #959595",
"v 	c #828282",
"w 	c #6E6E6E",
"x 	c #8B8B8B",
"y 	c #969696",
"z 	c #9E9E9E",
"A 	c #9C9C9C",
"B 	c #929292",
"C 	c #878787",
"D 	c #717171",
"E 	c #8E8E8E",
"F 	c #999999",
"G 	c #A2A2A2",
"H 	c #9D9D9D",
"I 	c #A0A0A0",
"J 	c #898989",
"K 	c #7E7E7E",
"L 	c #838383",
"M 	c #A4A4A4",
"N 	c #020202",
"O 	c #494949",
"P 	c #8D8D8D",
"Q 	c #101010",
"R 	c #6B6B6B",
"S 	c #5E5E5E",
"T 	c #181818",
"U 	c #252525",
"V 	c #080808",
"W 	c #0E0E0E",
"X 	c #272727",
"Y 	c #7A7A7A",
"Z 	c #4D4D4D",
"` 	c #5B5B5B",
". + @ # $ % & * * = - ; > , ' ) ",
"! ~ { % ] ^ / ( _ : < [ - } | ' ",
"1 ; & < 2 3 4 5 6 $ 7 / 8 9 # 0 ",
"} = ^ a b c d d d e b f ( ] g h ",
"g 8 i j k l d d d m n o p / * { ",
"= : p q r s d d d t u n v a w g ",
"[ ( j x y z d d d x A B C p D % ",
"] i v E F G d d d H I u J K / = ",
"] i L E F z d d d M I u J K / = ",
"[ ( j x y y m d d G A B C p D % ",
"= : p C r s d d N O J P L a w g ",
"g 8 i j C Q d d N 4 R o f / * { ",
"S = ^ a p T U V W X / f ( 8 g > ",
"1 ; & ^ 2 Y f ( > - i _ 8 9 } , ",
"! ~ ; = ] D _ ( / D < [ - } | Z ",
". ! 1 } $ % * [ [ & 9 ; ` , Z ) "};
