/* XPM */
const char* clone_xpm[] = {
"16 16 13 1",
" 	c None",
".	c #920000",
"+	c #310000",
"@	c #9BACAD",
"#	c #A0B0B1",
"$	c #97A8AA",
"%	c #9CADAD",
"&	c #BF0000",
"*	c #400000",
"=	c #CBE1E2",
"-	c #D1E6E8",
";	c #C6DCDE",
">	c #CCE2E3",
"  .... .... ....",
" +.@#.+.@#.+.@#.",
" +.$%.+.$%.+.$%.",
" +....+....+....",
" ++++ ++++ ++++ ",
"  .... .... ....",
" +.@#.+.@#.+.@#.",
" +.$%.+.$%.+.$%.",
" +....+....+....",
" ++++ ++++ ++++ ",
"  &&&& .... ....",
" *&=-&+.@#.+.@#.",
" *&;>&+.$%.+.$%.",
" *&&&&+....+....",
" **** ++++ ++++ ",
"                "};
