/* XPM */
const char* offset_xpm[] = {
"16 16 39 1",
" 	c None",
".	c #BFBFBF",
"+	c #BF0000",
"@	c #400000",
"#	c #B7D0D2",
"$	c #BFD6D8",
"%	c #C7DDDF",
"&	c #CEE4E6",
"*	c #808080",
"=	c #ADC7C9",
"-	c #B5CDCF",
";	c #BCD4D6",
">	c #C4DBDD",
",	c #A3BEC0",
"'	c #AAC5C7",
")	c #B2CBCD",
"!	c #BAD2D4",
"~	c #99B5B7",
"{	c #A0BCBE",
"]	c #A8C3C5",
"^	c #B0C9CB",
"/	c #8A0000",
"(	c #2E0000",
"_	c #859798",
":	c #8A9B9C",
"<	c #90A0A2",
"[	c #95A5A7",
"}	c #7D9092",
"|	c #839596",
"1	c #889A9B",
"2	c #8E9FA0",
"3	c #768A8B",
"4	c #7B8F90",
"5	c #819395",
"6	c #87989A",
"7	c #6F8385",
"8	c #74888A",
"9	c #7A8D8F",
"0	c #7F9293",
"    .     ++++++",
"   ...   @+#$%&+",
"  .*. .  @+=-;>+",
" * *.*   @+,')!+",
"   *.    @+~{]^+",
"   *.    @++++++",
"   *.    @@@@@@ ",
"   *            ",
"                ",
" //////      .  ",
"(/_:<[/     * . ",
"(/}|12/  .......",
"(/3456/ ******. ",
"(/7890/      .  ",
"(//////     *   ",
"((((((          "};
