/* XPM */
const char * quick_compile_xpm[] = {
"16 16 49 1",
" 	c None",
".	c #4BC357",
"+	c #FCC299",
"@	c #35A040",
"#	c #E4F6E5",
"$	c #FDE4D2",
"%	c #FEF3EB",
"&	c #FEF8F3",
"*	c #FEF9F5",
"=	c #206127",
"-	c #EAF8EB",
";	c #FCFEFC",
">	c #FDDDC6",
",	c #FEEEE3",
"'	c #FEECDF",
")	c #000000",
"!	c #FEF4ED",
"~	c #FCBE91",
"{	c #E8F7EA",
"]	c #81D489",
"^	c #38AB44",
"/	c #FCC49D",
"(	c #FDD5B8",
"_	c #FEF5EF",
":	c #FDD4B6",
"<	c #FBA262",
"[	c #39AC45",
"}	c #FCBF93",
"|	c #FDCDAA",
"1	c #FB9F5E",
"2	c #F9700E",
"3	c #FA9147",
"4	c #FA8C3D",
"5	c #FA8E41",
"6	c #2B8133",
"7	c #2A7F33",
"8	c #B5E6BA",
"9	c #D2F0D5",
"0	c #CFEFD2",
"a	c #F1FAF2",
"b	c #F8FDF9",
"c	c #F0FAF1",
"d	c #F7FCF8",
"e	c #6DCE77",
"f	c #82D58A",
"g	c #2C8535",
"h	c #A4E1AB",
"i	c #85D68D",
"j	c #ABE3B0",
"          ...   ",
"   +++    @#@   ",
"  $%&*+  =-;-=  ",
" >,'*)!~@{]^]{@.",
" /(_)*:<#;[ [;#.",
" }'%)%|1@{]^]{@.",
"  +>)$2  =-;-=  ",
"   345  67@#@76 ",
"   @#@ 789...987",
"  =-;-=70abcba07",
".@{]^]{@.de7edfg",
".#;[ [;#.c7 7ch ",
".@{]^]{@.de7edfg",
"  =-;-=70abcba07",
"   @#@ 789iji987",
"   ...  67g g76 "};
