/* XPM */
const char* refresh_xpm[] = {
"16 16 58 1",
" 	c None",
".	c #009D00",
"+	c #63D39F",
"@	c #62D5A0",
"#	c #62D7A2",
"$	c #61D9A3",
"%	c #60DCA5",
"&	c #60DEA5",
"*	c #64CE9C",
"=	c #63D09D",
"-	c #63D19E",
";	c #63D5A0",
">	c #62D6A2",
",	c #61D8A3",
"'	c #61DAA4",
")	c #60DDA5",
"!	c #66C898",
"~	c #64CA9A",
"{	c #64CD9B",
"]	c #61D8A2",
"^	c #66C395",
"/	c #66C697",
"(	c #65C798",
"_	c #005800",
":	c #60DBA4",
"<	c #67C093",
"[	c #67C295",
"}	c #66C597",
"|	c #62D6A1",
"1	c #62D9A3",
"2	c #68BD92",
"3	c #67BF93",
"4	c #62D4A0",
"5	c #62D5A1",
"6	c #68BC91",
"7	c #64D09E",
"8	c #63D29F",
"9	c #64CD9C",
"0	c #63D09E",
"a	c #65C899",
"b	c #65CA9A",
"c	c #64CC9C",
"d	c #69B88F",
"e	c #67C396",
"f	c #66C798",
"g	c #6AB38B",
"h	c #6AB58D",
"i	c #69B78E",
"j	c #69BA90",
"k	c #68BB91",
"l	c #68BE93",
"m	c #67C094",
"n	c #66C295",
"o	c #6BB18B",
"p	c #6AB48D",
"q	c #6AB68E",
"r	c #69B98F",
"s	c #67BD91",
"                ",
"      ......    ",
"     .+@#$%&.   ",
"    .*=-;>,').  ",
"   .!~{....]'%. ",
"  .^/(.____.#$:.",
" .<<[}}.  __.|1.",
"__.23[.    _.45.",
" __.6.     _.78.",
"  __.      _.90.",
"   _  .    .abc.",
"     .d....e}f. ",
"    .ghijklmn.  ",
"   __.opqrjs.   ",
"    __......    ",
"     ______     "};
