/* XPM */
const char * run_xpm[] = {
"16 16 87 1",
" 	c None",
".	c #C38F1C",
"+	c #BF8B1A",
"@	c #B67F14",
"#	c #C28E19",
"$	c #AE7E1D",
"%	c #B88012",
"&	c #C28F1E",
"*	c #BD8413",
"=	c #C38E1B",
"-	c #8B6A19",
";	c #C19A4B",
">	c #C09333",
",	c #B88318",
"'	c #B6790C",
")	c #CDC6BA",
"!	c #D7CFC1",
"~	c #CCBB9C",
"{	c #C4AD81",
"]	c #CCC5BA",
"^	c #E0DDD7",
"/	c #E2DFDA",
"(	c #E0DCD7",
"_	c #00570E",
":	c #83BF8D",
"<	c #C8BDAA",
"[	c #DAD0BD",
"}	c #D9D2C4",
"|	c #D9D4CA",
"1	c #00BF1E",
"2	c #CBBFAD",
"3	c #C6A56C",
"4	c #BE8A18",
"5	c #D4C08A",
"6	c #DCD7D2",
"7	c #DBD6CD",
"8	c #D0C7BA",
"9	c #C8AC80",
"0	c #BA800B",
"a	c #D7C086",
"b	c #E4E1DE",
"c	c #DEDAD2",
"d	c #C3B8A4",
"e	c #CDB997",
"f	c #B57C14",
"g	c #C9A141",
"h	c #DACEB0",
"i	c #D8D3C7",
"j	c #BD953A",
"k	c #BC8C29",
"l	c #BE8917",
"m	c #CDAC59",
"n	c #CCB278",
"o	c #CAB27E",
"p	c #B2790C",
"q	c #C08D15",
"r	c #C08C16",
"s	c #C6951A",
"t	c #C38E11",
"u	c #AD7610",
"v	c #B27F11",
"w	c #C39118",
"x	c #C4931B",
"y	c #C4921B",
"z	c #C08D19",
"A	c #BE8E1C",
"B	c #B68312",
"C	c #B4800F",
"D	c #C4931A",
"E	c #C08F1E",
"F	c #AB720E",
"G	c #BB8612",
"H	c #CB9C25",
"I	c #B88513",
"J	c #B5820E",
"K	c #BE8A14",
"L	c #C5951F",
"M	c #C59728",
"N	c #9F6003",
"O	c #BD8811",
"P	c #CD9F27",
"Q	c #CC9C24",
"R	c #B98611",
"S	c #BD8D1B",
"T	c #BA850C",
"U	c #C18D14",
"V	c #BA8412",
"           .+   ",
"          @#$   ",
"          %&*=- ",
"          ;>,'  ",
"         )!~{   ",
"         ]^/(   ",
"_:       <[}|   ",
"_1::    234567  ",
"_111::  890abc  ",
"_11111::defghi  ",
"_1111111:jklmno ",
"_111111_pqr+st  ",
"_1111__ uvwxyz  ",
"_11__  ABCDEFGH ",
"___    IJKLMNOPQ",
"_      RS    TUV"};
